<?xml version="1.0" encoding="UTF-8" standalone="no"?>
<!-- Created with Inkscape (http://www.inkscape.org/) -->

<svg
   xmlns:dc="http://purl.org/dc/elements/1.1/"
   xmlns:cc="http://creativecommons.org/ns#"
   xmlns:rdf="http://www.w3.org/1999/02/22-rdf-syntax-ns#"
   xmlns:svg="http://www.w3.org/2000/svg"
   xmlns="http://www.w3.org/2000/svg"
   xmlns:xlink="http://www.w3.org/1999/xlink"
   xmlns:sodipodi="http://sodipodi.sourceforge.net/DTD/sodipodi-0.dtd"
   xmlns:inkscape="http://www.inkscape.org/namespaces/inkscape"
   width="297mm"
   height="210mm"
   viewBox="0 0 297 210.00001"
   version="1.1"
   id="svg8"
   inkscape:version="0.92.1 r"
   sodipodi:docname="logo.svg"
   inkscape:export-filename="/home/felix/projects/chaosflix/app/src/main/res/drawable/chaosflix_logo.png"
   inkscape:export-xdpi="96"
   inkscape:export-ydpi="96">
  <sodipodi:namedview
     id="base"
     pagecolor="#ffffff"
     bordercolor="#666666"
     borderopacity="1.0"
     inkscape:pageopacity="0.0"
     inkscape:pageshadow="2"
     inkscape:zoom="1.4"
     inkscape:cx="727.08071"
     inkscape:cy="416.35199"
     inkscape:document-units="mm"
     inkscape:current-layer="layer1"
     showgrid="false"
     units="mm"
     inkscape:window-width="1914"
     inkscape:window-height="1039"
     inkscape:window-x="1920"
     inkscape:window-y="20"
     inkscape:window-maximized="0" />
  <defs
     id="defs2">
    <linearGradient
       gradientTransform="matrix(0.26458333,0,0,0.26458333,-143.1748,276.7583)"
       gradientUnits="userSpaceOnUse"
       y2="302.62933"
       x2="591.1413"
       y1="150.24785"
       x1="433.10291"
       id="linearGradient6365"
       xlink:href="#linearGradient6363"
       inkscape:collect="always" />
    <linearGradient
       id="linearGradient6363"
       inkscape:collect="always">
      <stop
         id="stop6359"
         offset="0"
         style="stop-color:#000000;stop-opacity:1" />
      <stop
         id="stop6361"
         offset="1"
         style="stop-color:#000000;stop-opacity:1" />
    </linearGradient>
    <linearGradient
       gradientTransform="matrix(0.26458333,0,0,0.26458333,50.4555,76.57994)"
       gradientUnits="userSpaceOnUse"
       y2="302.62933"
       x2="591.1413"
       y1="150.24785"
       x1="433.10291"
       id="linearGradient6365-6"
       xlink:href="#linearGradient6363"
       inkscape:collect="always" />
    <linearGradient
       gradientTransform="translate(445.92586,101.93979)"
       gradientUnits="userSpaceOnUse"
       y2="302.62933"
       x2="591.1413"
       y1="150.24785"
       x1="433.10291"
       id="linearGradient6365-6-8"
       xlink:href="#linearGradient6363"
       inkscape:collect="always" />
    <linearGradient
       inkscape:collect="always"
       xlink:href="#linearGradient6363"
       id="linearGradient7512"
       gradientUnits="userSpaceOnUse"
       gradientTransform="translate(230.7022,223.57833)"
       x1="433.10291"
       y1="150.24785"
       x2="591.1413"
       y2="302.62933" />
  </defs>
  <metadata
     id="metadata5">
    <rdf:RDF>
      <cc:Work
         rdf:about="">
        <dc:format>image/svg+xml</dc:format>
        <dc:type
           rdf:resource="http://purl.org/dc/dcmitype/StillImage" />
        <dc:title></dc:title>
      </cc:Work>
    </rdf:RDF>
  </metadata>
  <g
     transform="translate(0,-86.99998)"
     id="layer1"
     inkscape:groupmode="layer"
     inkscape:label="Layer 1">
    <g
       transform="translate(8.741613,-138.32148)"
       id="g6490">
      <rect
         style="color:#000000;clip-rule:nonzero;display:inline;overflow:visible;visibility:visible;opacity:1;isolation:auto;mix-blend-mode:normal;color-interpolation:sRGB;color-interpolation-filters:linearRGB;solid-color:#000000;solid-opacity:1;fill:#cf2b2b;fill-opacity:1;fill-rule:nonzero;stroke:none;stroke-width:0.23463336px;stroke-linecap:butt;stroke-linejoin:miter;stroke-miterlimit:4;stroke-dasharray:none;stroke-dashoffset:0;stroke-opacity:1;color-rendering:auto;image-rendering:auto;shape-rendering:auto;text-rendering:auto;enable-background:accumulate"
         id="rect5036"
         width="116.20413"
         height="65.939598"
         x="-0.26220083"
         y="231.89299" />
      <text
         xml:space="preserve"
         style="font-style:normal;font-variant:normal;font-weight:normal;font-stretch:normal;font-size:19.74125671px;line-height:49.35313797px;font-family:'Arabic Newspaper';-inkscape-font-specification:'Arabic Newspaper';text-align:start;letter-spacing:0px;word-spacing:0px;writing-mode:lr-tb;text-anchor:start;fill:#ffffff;fill-opacity:1;stroke:#000000;stroke-width:0.7629444;stroke-linecap:butt;stroke-linejoin:miter;stroke-miterlimit:4;stroke-dasharray:none;stroke-opacity:1"
         x="1.0975541"
         y="272.03918"
         id="text5040"><tspan
           sodipodi:role="line"
           id="tspan5038"
           x="1.0975541"
           y="272.03918"
           style="font-style:normal;font-variant:normal;font-weight:normal;font-stretch:normal;font-family:'Arabic Newspaper';-inkscape-font-specification:'Arabic Newspaper';fill:#ffffff;fill-opacity:1;stroke:#000000;stroke-width:0.7629444;stroke-miterlimit:4;stroke-dasharray:none;stroke-opacity:1">CHAOSFLIX</tspan></text>
    </g>
    <g
       transform="translate(125.49428,-132.00428)"
       id="g6500">
      <path
         style="opacity:1;fill:#ff8686;fill-opacity:1;fill-rule:nonzero;stroke:none;stroke-width:0.10644536;stroke-linecap:square;stroke-linejoin:round;stroke-miterlimit:4;stroke-dasharray:none;stroke-dashoffset:0;stroke-opacity:1"
         id="path4485-1"
         sodipodi:type="arc"
         sodipodi:cx="-11.446895"
         sodipodi:cy="331.21585"
         sodipodi:rx="25.886282"
         sodipodi:ry="25.886282"
         sodipodi:start="4.7615898"
         sodipodi:end="4.6894204"
         sodipodi:open="true"
         d="m -10.173782,305.36089 a 25.886282,25.886282 0 0 1 24.600604,26.66141 25.886282,25.886282 0 0 1 -26.213234,25.07761 25.886282,25.886282 0 0 1 -25.546451,-25.75654 25.886282,25.886282 0 0 1 25.291449,-26.00697" />
      <path
         style="font-style:normal;font-variant:normal;font-weight:normal;font-stretch:normal;font-size:medium;line-height:6.61458302px;font-family:'Arabic Newspaper';-inkscape-font-specification:'Arabic Newspaper';text-align:start;letter-spacing:0px;word-spacing:0px;writing-mode:lr-tb;text-anchor:start;opacity:0.05799997;fill:url(#linearGradient6365);fill-opacity:1;stroke:none;stroke-width:0.26458332;stroke-linecap:butt;stroke-linejoin:miter;stroke-opacity:1"
         d="m -11.447441,316.03135 c -7.15963,0 -12.964067,5.80469 -12.964067,12.96511 0.0021,1.57037 0.289105,3.12731 0.847495,4.59506 0.01675,-0.0439 0.03498,-0.0871 0.05219,-0.13074 0.03002,0.0842 0.0576,0.16912 0.0894,0.2527 1.1e-5,0.008 0.0011,0.0154 0.0041,0.0227 0.01683,-0.044 0.03491,-0.0874 0.05219,-0.13126 0.02752,0.0767 0.05265,0.15425 0.08165,0.23048 1.9e-5,0.0156 0.0033,0.0309 0.0083,0.0455 0.01812,-0.0475 0.03766,-0.0944 0.05633,-0.14159 0.02612,0.0726 0.05006,0.1459 0.07752,0.21807 2.9e-5,0.0234 0.0037,0.0468 0.01241,0.0687 0.0191,-0.05 0.04025,-0.0991 0.05994,-0.14883 0.02424,0.0671 0.04594,0.13484 0.07131,0.20154 3.2e-5,0.0312 0.0062,0.0623 0.01707,0.0915 0.01868,-0.0489 0.03914,-0.0971 0.05839,-0.14573 0.0213,0.0586 0.04034,0.11789 0.06253,0.17622 4e-5,0.0391 0.0066,0.0782 0.02066,0.11472 0.01992,-0.0522 0.04142,-0.10367 0.06201,-0.15555 0.01976,0.0542 0.03736,0.10886 0.05788,0.16278 6.1e-5,0.0469 0.009,0.0937 0.02532,0.13746 0.02032,-0.0532 0.04254,-0.10573 0.06356,-0.15864 0.01746,0.0477 0.03258,0.0962 0.05064,0.14366 7.2e-5,0.0547 0.01006,0.10857 0.02946,0.15968 0.02135,-0.0559 0.04453,-0.11083 0.06666,-0.1664 0.01566,0.0426 0.02934,0.0858 0.04548,0.12816 7.9e-5,0.0625 0.01138,0.12452 0.03359,0.18293 0.02172,-0.0569 0.04515,-0.11295 0.0677,-0.1695 0.01339,0.0362 0.02503,0.0729 0.03876,0.10904 9e-5,0.0703 0.01323,0.13996 0.03824,0.20567 0.02249,-0.0589 0.04639,-0.11717 0.06976,-0.1757 0.01127,0.0304 0.02103,0.0612 0.03256,0.0915 9e-5,0.0781 0.01468,0.15591 0.04237,0.22893 0.02312,-0.0605 0.04779,-0.12025 0.07183,-0.18035 0.0091,0.0244 0.01709,0.0491 0.02635,0.0734 9.8e-5,0.0859 0.0159,0.17135 0.04651,0.25167 0.02384,-0.0624 0.04958,-0.12407 0.07441,-0.18604 0.0071,0.0188 0.01299,0.038 0.02016,0.0568 1.08e-4,0.0937 0.01733,0.18679 0.05064,0.2744 0.02439,-0.0639 0.05051,-0.12725 0.07596,-0.19069 0.0047,0.0125 0.0087,0.0253 0.01344,0.0377 1.19e-4,0.10155 0.01868,0.20222 0.05478,0.29714 0.01717,-0.045 0.03605,-0.0891 0.05374,-0.13384 -0.07555,0.45354 -0.0949,0.91818 -0.06976,1.37769 0.006,0.0786 0.01646,0.15703 0.02326,0.23564 0.378979,0.48534 0.791951,0.94132 1.234033,1.36633 0.09973,0.10187 0.19981,0.20334 0.302823,0.30179 0.05495,0.0542 0.109969,0.10808 0.165884,0.16123 0.0711,0.0719 0.140647,0.14534 0.213423,0.21549 0.10759,0.11037 0.216096,0.21982 0.327628,0.32608 0.03162,0.0311 0.0621,0.0633 0.09405,0.094 0.05361,0.0533 0.106148,0.10742 0.160713,0.15968 0.04238,0.0419 0.08364,0.0848 0.126608,0.12609 0.04489,0.0445 0.08879,0.09 0.134358,0.13384 0.05371,0.0533 0.106551,0.10739 0.16123,0.15968 0.03926,0.0388 0.07752,0.0786 0.117305,0.11679 0.04806,0.0477 0.09482,0.0968 0.143661,0.14366 0.04774,0.0473 0.09463,0.0956 0.143145,0.14211 0.04639,0.046 0.09188,0.0928 0.139009,0.13798 0.04327,0.0429 0.08528,0.087 0.129191,0.12919 0.04811,0.0478 0.09526,0.0967 0.144177,0.14366 0.04576,0.0454 0.09045,0.0918 0.136943,0.13643 0.04572,0.0454 0.09049,0.0918 0.136943,0.13642 0.05126,0.0509 0.101806,0.10251 0.153995,0.15245 0.04095,0.0405 0.08093,0.082 0.122473,0.12195 0.05106,0.0508 0.101484,0.10216 0.15348,0.15193 0.04094,0.0406 0.08041,0.0825 0.121954,0.12248 0.0482,0.048 0.09565,0.0966 0.144696,0.14366 0.04813,0.0478 0.0952,0.0967 0.144176,0.14366 0.04271,0.0424 0.08426,0.086 0.127641,0.12764 0.04982,0.0496 0.09913,0.0997 0.149862,0.14831 0.04599,0.0456 0.09121,0.0921 0.137975,0.13694 0.04625,0.0459 0.09145,0.0929 0.138494,0.13798 0.04321,0.0429 0.08528,0.087 0.12919,0.12919 0.04917,0.049 0.09771,0.0988 0.147797,0.14676 0.04345,0.0432 0.08606,0.0873 0.130222,0.12971 0.0498,0.0496 0.0986,0.10021 0.149347,0.14882 0.04338,0.0431 0.08612,0.0869 0.130223,0.1292 0.0053,0.005 0.01024,0.0108 0.0155,0.016 -0.05431,0.20342 -0.08641,0.42363 -0.09715,0.66042 -0.0024,-0.006 -0.04393,-0.11523 -0.04393,-0.11523 h -0.04961 -0.03979 c -0.0036,-0.009 -0.05529,-0.14522 -0.05529,-0.14522 h -0.04599 -0.04341 c -0.0035,-0.009 -0.05529,-0.14469 -0.05529,-0.14469 h -0.04237 -0.04754 c -0.0035,-0.009 -0.05529,-0.14469 -0.05529,-0.14469 h -0.03876 -0.05064 c -0.0035,-0.009 -0.0553,-0.1447 -0.0553,-0.1447 h -0.03514 -0.05426 c -0.0035,-0.009 -0.05529,-0.14469 -0.05529,-0.14469 h -0.03204 -0.05736 c -0.0035,-0.009 -0.0553,-0.14521 -0.0553,-0.14521 h -0.02842 -0.06201 c -0.0034,-0.009 -0.05478,-0.14418 -0.05478,-0.14418 h -0.02479 -0.06356 c -0.0035,-0.009 -0.05529,-0.14521 -0.0553,-0.14521 h -0.02119 -0.06925 c -0.0034,-0.009 -0.0553,-0.14521 -0.0553,-0.14521 h -0.01757 -0.06976 c -0.0034,-0.009 -0.0553,-0.14469 -0.0553,-0.14469 h -0.01394 -0.07855 c -0.0034,-0.009 -0.05478,-0.14418 -0.05478,-0.14418 h -0.01035 -0.0801 c -0.0034,-0.009 -0.05529,-0.14521 -0.05529,-0.14521 h -0.0072 -0.08062 c -0.0034,-0.009 -0.0553,-0.1447 -0.0553,-0.1447 h -0.0041 -0.08578 l -0.05529,-0.14469 h -0.710036 l -0.702283,1.83968 v -0.10232 h -0.03721 -0.108003 v -0.14469 h -0.03411 -0.110588 v -0.1447 h -0.03101 -0.113686 v -0.14469 h -0.02842 -0.116271 v -0.14521 h -0.02479 -0.120922 v -0.14418 h -0.0217 -0.121438 v -0.14521 h -0.01913 -0.12609 v -0.14521 h -0.0155 -0.126606 v -0.14469 h -0.01241 -0.136424 v -0.14418 h -0.0088 -0.136425 v -0.14521 h -0.0062 -0.135909 v -0.1447 h -0.0031 -0.143143 v -0.14469 h -0.626319 v 1.89756 h -0.393258 v -0.0155 h -0.04082 -0.103867 v -0.14469 h -0.03721 -0.108003 v -0.1447 h -0.03411 -0.110588 v -0.14469 h -0.03101 -0.113686 v -0.14469 h -0.02842 -0.116274 v -0.14522 h -0.02479 -0.120923 v -0.14417 h -0.0217 -0.121441 v -0.14521 h -0.01913 -0.12609 v -0.14521 h -0.01601 -0.12609 v -0.1447 h -0.01241 -0.135909 v -0.14417 h -0.0093 -0.136425 v -0.14522 h -0.0062 -0.135908 v -0.14469 h -0.0031 -0.143142 V 341.6881 H -24.4135 v 1.34875 c -0.03403,-0.0229 -0.06904,-0.0437 -0.10387,-0.0646 v -0.0589 h -5.29e-4 c -0.0064,-0.004 -0.01368,-0.008 -0.02066,-0.01 -0.04062,-0.0277 -0.08227,-0.053 -0.124024,-0.078 v -0.0568 c -0.0054,-0.004 -0.01156,-0.007 -0.01757,-0.008 -0.04087,-0.0279 -0.08252,-0.0534 -0.124542,-0.0786 v -0.0584 c -0.0048,-0.003 -0.0089,-0.005 -0.01394,-0.006 -0.04385,-0.0299 -0.08868,-0.0574 -0.133842,-0.0842 v -0.0537 c -0.0033,-0.002 -0.0064,-0.004 -0.01035,-0.005 -0.04451,-0.0304 -0.09005,-0.0581 -0.135911,-0.0853 v -0.0548 c -0.0021,-0.002 -0.0052,-0.002 -0.0072,-0.003 -0.04426,-0.0302 -0.08929,-0.0582 -0.134874,-0.0853 v -0.0563 c -0.0011,-7.9e-4 -0.0021,-0.001 -0.0031,-0.002 -0.04691,-0.032 -0.09475,-0.0615 -0.143145,-0.0899 v -0.0532 c -0.214969,-0.14676 -0.44545,-0.25631 -0.69143,-0.32866 -0.243912,-0.0744 -0.504357,-0.11162 -0.781349,-0.11162 -0.700728,0 -1.252641,0.21497 -1.655712,0.64492 -0.403069,0.42788 -0.604613,1.01389 -0.604613,1.75803 0,0.74208 0.201544,1.32809 0.604613,1.75804 0.04001,0.0425 0.08264,0.0811 0.125574,0.11937 0.0074,0.008 0.01365,0.0173 0.02119,0.0253 0.0021,0.002 0.0048,0.003 0.0078,0.003 0.02283,0.0242 0.04804,0.0454 0.07183,0.0682 0.02072,0.0243 0.03958,0.05 0.06149,0.0734 0.004,0.004 0.0095,0.006 0.01654,0.006 0.02106,0.0223 0.04426,0.0419 0.06615,0.063 0.02143,0.0252 0.04136,0.0517 0.06408,0.076 0.006,0.006 0.01379,0.009 0.02429,0.009 0.01558,0.0165 0.03305,0.0306 0.04909,0.0465 0.02469,0.0296 0.04796,0.0601 0.07441,0.0884 3.346106,3.22407 6.634808,6.53837 9.914125,9.87692 a 25.886282,25.886282 0 0 0 6.232694,0.87902 25.886282,25.886282 0 0 0 25.45271,-19.65978 c -4.7841902,-4.77994 -9.1947414,-9.86486 -13.81931141,-15.18823 -0.13221758,-0.16072 -0.26776097,-0.319 -0.4077282,-0.47283 -0.00926,-0.011 -0.0191294,-0.0216 -0.0284215,-0.0326 -0.0646457,-0.0794 -0.13140267,-0.1568 -0.19792156,-0.23461 -0.13687425,-0.16651 -0.27769343,-0.3296 -0.42271163,-0.48886 -0.02503,-0.0297 -0.0512,-0.0584 -0.076483,-0.0878 -0.038169,-0.0463 -0.079023,-0.0902 -0.1178216,-0.13591 -2.3775669,-2.90953 -5.9932728,-4.76767 -10.0433131,-4.76767 z"
         id="path5521"
         inkscape:connector-curvature="0" />
      <path
         id="path5367"
         style="font-style:normal;font-variant:normal;font-weight:normal;font-stretch:normal;font-size:medium;line-height:6.61458302px;font-family:'Arabic Newspaper';-inkscape-font-specification:'Arabic Newspaper';text-align:start;letter-spacing:0px;word-spacing:0px;writing-mode:lr-tb;text-anchor:start;fill:#ffffff;fill-opacity:1;stroke:none;stroke-width:0.26458332px;stroke-linecap:butt;stroke-linejoin:miter;stroke-opacity:1"
         d="m 2.47473,341.68813 h 0.67283 l 1.15032,1.72083 1.15652,-1.72083 h 0.67283 l -1.48829,2.22312 1.5875,2.40606 H 5.55362 l -1.30225,-1.96888 -1.31155,1.96888 H 2.2639 l 1.65261,-2.47117 z m -1.64951,0 h 0.62632 v 4.62918 H 0.82522 Z m -3.53466,0 h 0.62631 v 4.10208 H 0.171 v 0.5271 h -2.88044 z m -3.6587,0 h 2.66031 v 0.5271 h -2.03399 v 1.36426 h 1.83555 v 0.5271 h -1.83555 v 2.21072 h -0.62632 z m -1.25573,0.15193 v 0.61081 q -0.35657,-0.17053 -0.67283,-0.25424 -0.31626,-0.0837 -0.61082,-0.0837 -0.51159,0 -0.79064,0.19844 -0.27596,0.19843 -0.27596,0.5643 0,0.30696 0.18294,0.46509 0.18603,0.15503 0.70073,0.25115 l 0.37827,0.0775 q 0.70073,0.13332 1.0325,0.47129 0.33486,0.33486 0.33486,0.89917 0,0.67282 -0.45269,1.02009 -0.44958,0.34726 -1.32085,0.34726 -0.32866,0 -0.70073,-0.0744 -0.36897,-0.0744 -0.76584,-0.22014 v -0.64492 q 0.38137,0.21394 0.74724,0.32246 0.36587,0.10852 0.71933,0.10852 0.53641,0 0.82786,-0.21084 0.29146,-0.21084 0.29146,-0.60151 0,-0.34106 -0.21084,-0.5333 -0.20774,-0.19224 -0.68523,-0.28836 l -0.38137,-0.0744 q -0.70074,-0.13952 -1.0139,-0.43718 -0.31316,-0.29766 -0.31316,-0.82785 0,-0.61392 0.43099,-0.96739 0.43408,-0.35346 1.19372,-0.35346 0.32556,0 0.66353,0.0589 0.33796,0.0589 0.69143,0.17673 z m -5.90042,0.27285 q -0.68213,0 -1.0852,0.5085 -0.39998,0.50849 -0.39998,1.38596 0,0.87436 0.39998,1.38286 0.40307,0.5085 1.0852,0.5085 0.68213,0 1.07901,-0.5085 0.39997,-0.5085 0.39997,-1.38286 0,-0.87747 -0.39997,-1.38596 -0.39688,-0.5085 -1.07901,-0.5085 z m 0,-0.50849 q 0.97359,0 1.5565,0.65422 0.58291,0.65112 0.58291,1.74873 0,1.09451 -0.58291,1.74873 -0.58291,0.65112 -1.5565,0.65112 -0.97668,0 -1.56269,-0.65112 -0.58291,-0.65112 -0.58291,-1.74873 0,-1.09761 0.58291,-1.74873 0.58601,-0.65422 1.56269,-0.65422 z m -4.56716,0.70073 -0.84956,2.30373 h 1.70222 z m -0.35347,-0.61702 h 0.71004 l 1.76423,4.62918 h -0.65112 l -0.42168,-1.18753 h -2.0867 l -0.42168,1.18753 h -0.66042 z m -5.96863,0 h 0.62632 v 1.89756 h 2.27583 v -1.89756 h 0.62632 v 4.62918 h -0.62632 v -2.20452 h -2.27583 v 2.20452 h -0.62632 z m -0.97358,0.35657 v 0.66042 q -0.31626,-0.29455 -0.67593,-0.44028 -0.35656,-0.14573 -0.75964,-0.14573 -0.79375,0 -1.21543,0.48679 -0.42168,0.4837 -0.42168,1.40147 0,0.91467 0.42168,1.40146 0.42168,0.48369 1.21543,0.48369 0.40308,0 0.75964,-0.14572 0.35967,-0.14573 0.67593,-0.44029 v 0.65423 q -0.32866,0.22324 -0.69763,0.33486 -0.36587,0.11162 -0.77515,0.11162 -1.0511,0 -1.65571,-0.64182 -0.60461,-0.64492 -0.60461,-1.75803 0,-1.11621 0.60461,-1.75803 0.60461,-0.64492 1.65571,-0.64492 0.41548,0 0.78135,0.11162 0.36897,0.10852 0.69143,0.32866 z m 13.93991,-26.01337 c -7.15963,0 -12.9642,5.80457 -12.9642,12.96498 a 12.964982,12.964982 0 0 0 0.84728,4.59512 c 0.18992,-0.49723 0.40781,-0.98259 0.68241,-1.43841 0.1398,-0.23213 0.29359,-0.45714 0.3962,-0.70694 0.10288,-0.2506 0.15036,-0.53337 0.0717,-0.79215 -0.0448,-0.14719 -0.12925,-0.28014 -0.22052,-0.40359 -0.0915,-0.12397 -0.19177,-0.24109 -0.27513,-0.37061 -0.21208,-0.32894 -0.30942,-0.73385 -0.25429,-1.12108 0.0554,-0.38777 0.26431,-0.75443 0.57927,-0.98708 0.28067,-0.20734 0.63519,-0.30072 0.9855,-0.28753 a 1.7568012,1.7568012 0 0 1 0.34556,0.0475 c 0.45265,0.11 0.85202,0.39304 1.14825,0.75179 0.36718,0.44579 0.58296,1.00976 0.63572,1.58481 0.0533,0.57505 -0.0528,1.16065 -0.27487,1.69349 -0.39831,0.9549 -1.15062,1.72568 -1.56476,2.67372 -0.33817,0.77447 -0.43525,1.6381 -0.38908,2.4822 0.006,0.0786 0.0169,0.15669 0.0237,0.2353 a 12.964982,12.964982 0 0 0 3.61938,3.18044 17.628682,17.628682 0 0 1 -0.12873,-2.11027 c 0.002,-0.56133 0.0303,-1.12108 0.0844,-1.67503 -0.34107,-0.23476 -0.65075,-0.5091 -0.87049,-0.85808 -0.39092,-0.62174 -0.46478,-1.40861 -0.30388,-2.12531 0.16091,-0.7167 0.54076,-1.36957 0.99711,-1.94488 0.75284,-0.94831 1.73622,-1.71565 2.83515,-2.2237 -0.0317,-0.0435 -0.0633,-0.0881 -0.0897,-0.12556 -0.40465,-0.65498 -0.64363,-1.40966 -0.70167,-2.17754 -0.0591,-0.77658 0.0633,-1.55421 0.11475,-2.33106 0.0369,-0.54181 0.039,-1.08415 0.0707,-1.62623 0.0369,-0.62701 0.11342,-1.25482 0.28937,-1.85756 0.0638,-0.21842 0.14191,-0.43656 0.26589,-0.62781 a 1.4006929,1.4006929 0 0 1 0.59431,-0.51543 c 0.27354,-0.10815 0.51121,-0.13137 0.77552,-0.087 0.22105,0.0475 0.42549,0.15695 0.6046,0.29544 0.17937,0.13769 0.33421,0.30414 0.48061,0.47665 a 7.2975837,7.2975837 0 0 1 1.03773,1.61595 3.5711075,3.5711075 0 0 1 1.09206,0 7.2865047,7.2865047 0 0 1 1.03826,-1.61621 c 0.14613,-0.17251 0.3015,-0.33896 0.48061,-0.47692 0.17937,-0.13822 0.38354,-0.24796 0.60486,-0.29491 a 1.2680096,1.2680096 0 0 1 0.78001,0.087 1.4022756,1.4022756 0 0 1 0.5943,0.51702 c 0.12398,0.19071 0.20206,0.40781 0.2659,0.62648 0.17568,0.60275 0.25217,1.23055 0.2891,1.85704 0.0317,0.54234 0.0343,1.08626 0.0712,1.62755 0.0514,0.77711 0.17489,1.55368 0.11607,2.33 a 4.854944,4.854944 0 0 1 -0.70378,2.17807 c -0.0317,0.0501 -0.0702,0.0957 -0.10287,0.14508 0.24637,0.2775 0.59799,0.51332 0.89792,0.61409 a 1.9556944,1.9556944 0 0 0 1.04827,0.0427 1.6504963,1.6504963 0 0 0 0.5339,-0.22633 1.252974,1.252974 0 0 0 0.397,-0.41783 c 0.1187,-0.20839 0.16618,-0.44844 0.19256,-0.68716 0.0673,-0.60881 0,-1.22396 -0.0501,-1.83436 -0.0343,-0.3962 -0.062,-0.79926 0.0269,-1.18702 0.0601,-0.26247 0.17779,-0.51913 0.37458,-0.70246 a 1.1057824,1.1057824 0 0 1 0.46478,-0.25323 1.3120615,1.3120615 0 0 1 0.53021,-0.029 c 0.37985,0.0554 0.73543,0.27275 0.94751,0.59219 0.12055,0.18148 0.19388,0.39119 0.23793,0.60486 0.0438,0.21366 0.0599,0.43128 0.0717,0.64891 0.0412,0.76049 0.0396,1.52203 0.0185,2.28358 -0.0177,0.66473 -0.0554,1.34793 -0.32129,1.95727 -0.34186,0.78212 -1.03034,1.36588 -1.77394,1.78529 a 7.051737,7.051737 0 0 1 -1.58693,0.64891 c 0.48193,1.53839 0.73279,3.24059 0.73279,4.96705 a 17.598875,17.598875 0 0 1 -0.13452,2.12557 12.964455,12.964455 0 0 0 6.38357,-11.15225 c -7.8e-4,-7.16068 -5.80535,-12.96498 -12.96497,-12.96498 z m -3.62598,15.98162 v 1.48299 a 1.8799885,1.8799885 0 0 1 1.08336,0.36244 1.7378088,1.7378088 0 0 1 0.55606,0.68056 c 0.12134,0.27038 0.16618,0.57585 0.11606,0.86785 a 1.4930173,1.4930173 0 0 1 -0.33184,0.708 1.6468034,1.6468034 0 0 1 -0.63572,0.45793 1.7383364,1.7383364 0 0 1 -0.78792,0.12213 v 3.73122 l 7.76211,-4.20867 -7.76237,-4.20471 z"
         inkscape:connector-curvature="0" />
    </g>
    <flowRoot
       style="font-style:normal;font-variant:normal;font-weight:normal;font-stretch:normal;font-size:24px;line-height:25px;font-family:Arvo;-inkscape-font-specification:'Arvo, Normal';text-align:start;letter-spacing:0px;word-spacing:0px;writing-mode:lr-tb;text-anchor:start;fill:#000000;fill-opacity:1;stroke:none;stroke-width:1px;stroke-linecap:butt;stroke-linejoin:miter;stroke-opacity:1"
       id="flowRoot6433"
       xml:space="preserve"><flowRegion
         id="flowRegion6435"><rect
           y="285.14285"
           x="227.14285"
           height="44.285713"
           width="82.85714"
           id="rect6437" /></flowRegion><flowPara
         id="flowPara6439" /></flowRoot>    <g
       id="g7475">
      <rect
         y="103.12875"
         x="154.27124"
         height="55.824322"
         width="55.824322"
         id="rect7408"
         style="color:#000000;clip-rule:nonzero;display:inline;overflow:visible;visibility:visible;opacity:1;isolation:auto;mix-blend-mode:normal;color-interpolation:sRGB;color-interpolation-filters:linearRGB;solid-color:#000000;solid-opacity:1;fill:#000000;fill-opacity:1;fill-rule:nonzero;stroke:#000000;stroke-width:0.55716407;stroke-linecap:butt;stroke-linejoin:miter;stroke-miterlimit:4;stroke-dasharray:none;stroke-dashoffset:0;stroke-opacity:1;color-rendering:auto;image-rendering:auto;shape-rendering:auto;text-rendering:auto;enable-background:accumulate" />
      <path
         style="opacity:1;fill:#ee4c4c;fill-opacity:1;fill-rule:nonzero;stroke:none;stroke-width:0.10644536;stroke-linecap:square;stroke-linejoin:round;stroke-miterlimit:4;stroke-dasharray:none;stroke-dashoffset:0;stroke-opacity:1"
         id="path4485-1-3"
         sodipodi:type="arc"
         sodipodi:cx="182.18341"
         sodipodi:cy="131.03749"
         sodipodi:rx="25.886282"
         sodipodi:ry="25.886282"
         sodipodi:start="4.7615898"
         sodipodi:end="4.6894204"
         sodipodi:open="true"
         d="m 183.45652,105.18253 a 25.886282,25.886282 0 0 1 24.60061,26.66141 25.886282,25.886282 0 0 1 -26.21324,25.07761 25.886282,25.886282 0 0 1 -25.54645,-25.75654 25.886282,25.886282 0 0 1 25.29145,-26.00697" />
      <path
         style="font-style:normal;font-variant:normal;font-weight:normal;font-stretch:normal;font-size:medium;line-height:6.61458302px;font-family:'Arabic Newspaper';-inkscape-font-specification:'Arabic Newspaper';text-align:start;letter-spacing:0px;word-spacing:0px;writing-mode:lr-tb;text-anchor:start;opacity:0.10800003;fill:url(#linearGradient6365-6);fill-opacity:1;stroke:none;stroke-width:0.26458332;stroke-linecap:butt;stroke-linejoin:miter;stroke-opacity:1"
         d="m 182.18286,115.85299 c -7.15963,0 -12.96407,5.80469 -12.96407,12.96511 0.002,1.57037 0.28911,3.12731 0.8475,4.59506 0.0168,-0.0439 0.035,-0.0871 0.0522,-0.13074 0.03,0.0842 0.0576,0.16912 0.0894,0.2527 1e-5,0.008 0.001,0.0154 0.004,0.0227 0.0168,-0.044 0.0349,-0.0874 0.0522,-0.13126 0.0275,0.0767 0.0526,0.15425 0.0816,0.23048 2e-5,0.0156 0.003,0.0309 0.008,0.0455 0.0181,-0.0475 0.0377,-0.0944 0.0563,-0.14159 0.0261,0.0726 0.0501,0.1459 0.0775,0.21807 3e-5,0.0234 0.004,0.0468 0.0124,0.0687 0.0191,-0.05 0.0402,-0.0991 0.0599,-0.14883 0.0242,0.0671 0.0459,0.13484 0.0713,0.20154 3e-5,0.0312 0.006,0.0623 0.0171,0.0915 0.0187,-0.0489 0.0391,-0.0971 0.0584,-0.14573 0.0213,0.0586 0.0403,0.11789 0.0625,0.17622 4e-5,0.0391 0.007,0.0782 0.0207,0.11472 0.0199,-0.0522 0.0414,-0.10367 0.062,-0.15555 0.0198,0.0542 0.0374,0.10886 0.0579,0.16278 6e-5,0.0469 0.009,0.0937 0.0253,0.13746 0.0203,-0.0532 0.0425,-0.10573 0.0636,-0.15864 0.0175,0.0477 0.0326,0.0962 0.0506,0.14366 7e-5,0.0547 0.0101,0.10857 0.0295,0.15968 0.0214,-0.0559 0.0445,-0.11083 0.0667,-0.1664 0.0157,0.0426 0.0293,0.0858 0.0455,0.12816 8e-5,0.0625 0.0114,0.12452 0.0336,0.18293 0.0217,-0.0569 0.0451,-0.11295 0.0677,-0.1695 0.0134,0.0362 0.025,0.0729 0.0388,0.10904 9e-5,0.0703 0.0132,0.13996 0.0382,0.20567 0.0225,-0.0589 0.0464,-0.11717 0.0698,-0.1757 0.0113,0.0304 0.021,0.0612 0.0326,0.0915 9e-5,0.0781 0.0147,0.15591 0.0424,0.22893 0.0231,-0.0605 0.0478,-0.12025 0.0718,-0.18035 0.009,0.0244 0.0171,0.0491 0.0263,0.0734 9e-5,0.0859 0.0159,0.17135 0.0465,0.25167 0.0238,-0.0624 0.0496,-0.12407 0.0744,-0.18604 0.007,0.0188 0.013,0.038 0.0202,0.0568 1e-4,0.0937 0.0173,0.18679 0.0506,0.2744 0.0244,-0.0639 0.0505,-0.12725 0.076,-0.19069 0.005,0.0125 0.009,0.0253 0.0134,0.0377 1.2e-4,0.10155 0.0187,0.20222 0.0548,0.29714 0.0172,-0.045 0.036,-0.0891 0.0537,-0.13384 -0.0755,0.45354 -0.0949,0.91818 -0.0698,1.37769 0.006,0.0786 0.0165,0.15703 0.0233,0.23564 0.37898,0.48534 0.79195,0.94132 1.23403,1.36633 0.0997,0.10187 0.19981,0.20334 0.30282,0.30179 0.0549,0.0542 0.10997,0.10808 0.16589,0.16123 0.0711,0.0719 0.14064,0.14534 0.21342,0.21549 0.10759,0.11037 0.2161,0.21982 0.32763,0.32608 0.0316,0.0311 0.0621,0.0633 0.0941,0.094 0.0536,0.0533 0.10615,0.10742 0.16071,0.15968 0.0424,0.0419 0.0836,0.0848 0.12661,0.12609 0.0449,0.0445 0.0888,0.09 0.13436,0.13384 0.0537,0.0533 0.10655,0.10739 0.16123,0.15968 0.0393,0.0388 0.0775,0.0786 0.1173,0.11679 0.0481,0.0477 0.0948,0.0968 0.14366,0.14366 0.0477,0.0473 0.0946,0.0956 0.14315,0.14211 0.0464,0.046 0.0919,0.0928 0.13901,0.13798 0.0433,0.0429 0.0853,0.087 0.12919,0.12919 0.0481,0.0478 0.0953,0.0967 0.14417,0.14366 0.0458,0.0454 0.0905,0.0918 0.13695,0.13643 0.0457,0.0454 0.0905,0.0918 0.13694,0.13642 0.0513,0.0509 0.10181,0.10251 0.154,0.15245 0.041,0.0405 0.0809,0.082 0.12247,0.12195 0.0511,0.0508 0.10148,0.10216 0.15348,0.15193 0.0409,0.0406 0.0804,0.0825 0.12195,0.12248 0.0482,0.048 0.0957,0.0966 0.1447,0.14366 0.0481,0.0478 0.0952,0.0967 0.14417,0.14366 0.0427,0.0424 0.0843,0.0859 0.12765,0.12764 0.0498,0.0496 0.0991,0.0997 0.14986,0.14831 0.046,0.0456 0.0912,0.0921 0.13797,0.13694 0.0463,0.0459 0.0915,0.0929 0.1385,0.13798 0.0432,0.0429 0.0853,0.087 0.12919,0.12919 0.0492,0.049 0.0977,0.0988 0.14779,0.14676 0.0435,0.0432 0.0861,0.0873 0.13023,0.12971 0.0498,0.0496 0.0986,0.10021 0.14934,0.14882 0.0434,0.0431 0.0861,0.0869 0.13023,0.1292 0.005,0.005 0.0102,0.0108 0.0155,0.016 -0.0543,0.20342 -0.0864,0.42363 -0.0971,0.66042 -0.002,-0.006 -0.0439,-0.11523 -0.0439,-0.11523 h -0.0496 -0.0398 c -0.004,-0.009 -0.0553,-0.14522 -0.0553,-0.14522 h -0.046 -0.0434 c -0.004,-0.009 -0.0553,-0.14469 -0.0553,-0.14469 h -0.0424 -0.0475 c -0.004,-0.009 -0.0553,-0.14469 -0.0553,-0.14469 h -0.0388 -0.0506 c -0.004,-0.009 -0.0553,-0.1447 -0.0553,-0.1447 h -0.0351 -0.0543 c -0.004,-0.009 -0.0553,-0.14469 -0.0553,-0.14469 h -0.032 -0.0574 c -0.004,-0.009 -0.0553,-0.14521 -0.0553,-0.14521 h -0.0284 -0.062 c -0.003,-0.009 -0.0548,-0.14418 -0.0548,-0.14418 h -0.0248 -0.0636 c -0.004,-0.009 -0.0553,-0.14521 -0.0553,-0.14521 h -0.0212 -0.0693 c -0.003,-0.009 -0.0553,-0.14521 -0.0553,-0.14521 h -0.0176 -0.0698 c -0.003,-0.009 -0.0553,-0.14469 -0.0553,-0.14469 h -0.0139 -0.0785 c -0.003,-0.009 -0.0548,-0.14418 -0.0548,-0.14418 h -0.0103 -0.0801 c -0.003,-0.009 -0.0553,-0.14521 -0.0553,-0.14521 h -0.007 -0.0806 c -0.003,-0.009 -0.0553,-0.1447 -0.0553,-0.1447 h -0.004 -0.0858 l -0.0553,-0.14469 h -0.71004 l -0.70228,1.83968 v -0.10232 h -0.0372 -0.10801 v -0.14469 h -0.0341 -0.11058 v -0.1447 h -0.031 -0.11369 v -0.14469 h -0.0284 -0.11627 v -0.14521 h -0.0248 -0.12092 v -0.14418 h -0.0217 -0.12144 v -0.14521 h -0.0191 -0.12609 v -0.14521 h -0.0155 -0.12661 v -0.14469 h -0.0124 -0.13642 v -0.14418 h -0.009 -0.13643 v -0.14521 h -0.006 -0.13591 v -0.1447 h -0.003 -0.14314 v -0.14469 h -0.62632 v 1.89756 h -0.39326 v -0.0155 h -0.0408 -0.10386 v -0.14469 h -0.0372 -0.10801 v -0.1447 h -0.0341 -0.11058 v -0.14469 h -0.031 -0.11369 v -0.14469 h -0.0284 -0.11627 v -0.14522 h -0.0248 -0.12093 v -0.14417 h -0.0217 -0.12144 v -0.14521 h -0.0191 -0.12609 v -0.14521 h -0.016 -0.12609 v -0.1447 h -0.0124 -0.13591 v -0.14417 h -0.009 -0.13642 v -0.14522 h -0.006 -0.13591 v -0.14469 h -0.003 -0.14314 v -0.14469 h -0.62632 v 1.34875 c -0.034,-0.0229 -0.069,-0.0437 -0.10387,-0.0646 v -0.0589 h -5.3e-4 c -0.006,-0.004 -0.0137,-0.008 -0.0207,-0.01 -0.0406,-0.0277 -0.0823,-0.053 -0.12402,-0.078 v -0.0568 c -0.005,-0.004 -0.0116,-0.007 -0.0176,-0.008 -0.0409,-0.0279 -0.0825,-0.0534 -0.12454,-0.0786 v -0.0584 c -0.005,-0.003 -0.009,-0.005 -0.014,-0.006 -0.0438,-0.0299 -0.0887,-0.0575 -0.13384,-0.0842 v -0.0537 c -0.003,-0.002 -0.006,-0.004 -0.0103,-0.005 -0.0445,-0.0304 -0.0901,-0.0581 -0.13591,-0.0853 v -0.0548 c -0.002,-0.002 -0.005,-0.002 -0.007,-0.003 -0.0443,-0.0302 -0.0893,-0.0582 -0.13487,-0.0853 v -0.0563 c -0.001,-7.9e-4 -0.002,-0.001 -0.003,-0.002 -0.0469,-0.032 -0.0948,-0.0615 -0.14315,-0.0899 v -0.0532 c -0.21497,-0.14676 -0.44545,-0.25631 -0.69143,-0.32866 -0.24391,-0.0744 -0.50435,-0.11162 -0.78135,-0.11162 -0.70072,0 -1.25264,0.21497 -1.65571,0.64492 -0.40307,0.42788 -0.60461,1.01389 -0.60461,1.75803 0,0.74208 0.20154,1.32809 0.60461,1.75804 0.04,0.0425 0.0826,0.0811 0.12558,0.11937 0.007,0.008 0.0137,0.0173 0.0212,0.0253 0.002,0.002 0.005,0.003 0.008,0.003 0.0228,0.0242 0.048,0.0454 0.0718,0.0682 0.0207,0.0243 0.0396,0.05 0.0615,0.0734 0.004,0.004 0.01,0.006 0.0165,0.006 0.0211,0.0223 0.0443,0.0419 0.0661,0.063 0.0214,0.0252 0.0414,0.0517 0.0641,0.076 0.006,0.006 0.0138,0.009 0.0243,0.009 0.0156,0.0165 0.0331,0.0306 0.0491,0.0465 0.0247,0.0296 0.048,0.0601 0.0744,0.0884 3.3461,3.22407 6.6348,6.53837 9.91412,9.87692 a 25.886282,25.886282 0 0 0 6.23269,0.87902 25.886282,25.886282 0 0 0 25.45271,-19.65978 c -4.78419,-4.77994 -9.19474,-9.86486 -13.81931,-15.18823 -0.13221,-0.16072 -0.26776,-0.319 -0.40772,-0.47283 -0.009,-0.011 -0.0191,-0.0216 -0.0284,-0.0326 -0.0647,-0.0794 -0.1314,-0.1568 -0.19792,-0.23461 -0.13687,-0.16651 -0.27769,-0.3296 -0.42271,-0.48886 -0.025,-0.0297 -0.0512,-0.0584 -0.0765,-0.0879 -0.0382,-0.0462 -0.079,-0.0902 -0.11782,-0.13591 -2.37757,-2.90953 -5.99327,-4.76767 -10.04331,-4.76767 z"
         id="path5521-2"
         inkscape:connector-curvature="0" />
      <path
         id="path5367-7"
         style="font-style:normal;font-variant:normal;font-weight:normal;font-stretch:normal;font-size:medium;line-height:6.61458302px;font-family:'Arabic Newspaper';-inkscape-font-specification:'Arabic Newspaper';text-align:start;letter-spacing:0px;word-spacing:0px;writing-mode:lr-tb;text-anchor:start;fill:#ffffff;fill-opacity:1;stroke:none;stroke-width:0.26458332px;stroke-linecap:butt;stroke-linejoin:miter;stroke-opacity:1"
         d="m 196.10503,141.50977 h 0.67283 l 1.15032,1.72083 1.15652,-1.72083 h 0.67283 l -1.48829,2.22312 1.5875,2.40606 h -0.67282 l -1.30225,-1.96888 -1.31155,1.96888 h -0.67592 l 1.65261,-2.47117 z m -1.64951,0 h 0.62632 v 4.62918 h -0.62632 z m -3.53466,0 h 0.62631 v 4.10208 h 2.25413 v 0.5271 h -2.88044 z m -3.6587,0 h 2.66031 v 0.5271 h -2.03399 v 1.36426 h 1.83555 v 0.5271 h -1.83555 v 2.21072 h -0.62632 z m -1.25573,0.15193 v 0.61081 q -0.35657,-0.17053 -0.67283,-0.25424 -0.31626,-0.0837 -0.61082,-0.0837 -0.51159,0 -0.79064,0.19844 -0.27596,0.19843 -0.27596,0.5643 0,0.30696 0.18294,0.46509 0.18603,0.15503 0.70073,0.25115 l 0.37827,0.0775 q 0.70073,0.13332 1.0325,0.47129 0.33486,0.33486 0.33486,0.89917 0,0.67282 -0.45269,1.02009 -0.44958,0.34726 -1.32085,0.34726 -0.32866,0 -0.70073,-0.0744 -0.36897,-0.0744 -0.76584,-0.22014 v -0.64492 q 0.38137,0.21394 0.74724,0.32246 0.36587,0.10852 0.71933,0.10852 0.53641,0 0.82786,-0.21084 0.29146,-0.21084 0.29146,-0.60151 0,-0.34106 -0.21084,-0.5333 -0.20774,-0.19224 -0.68523,-0.28836 l -0.38137,-0.0744 q -0.70074,-0.13952 -1.0139,-0.43718 -0.31316,-0.29766 -0.31316,-0.82785 0,-0.61392 0.43099,-0.96739 0.43408,-0.35346 1.19372,-0.35346 0.32556,0 0.66353,0.0589 0.33796,0.0589 0.69143,0.17673 z m -5.90042,0.27285 q -0.68213,0 -1.0852,0.5085 -0.39998,0.50849 -0.39998,1.38596 0,0.87436 0.39998,1.38286 0.40307,0.5085 1.0852,0.5085 0.68213,0 1.07901,-0.5085 0.39997,-0.5085 0.39997,-1.38286 0,-0.87747 -0.39997,-1.38596 -0.39688,-0.5085 -1.07901,-0.5085 z m 0,-0.50849 q 0.97359,0 1.5565,0.65422 0.58291,0.65112 0.58291,1.74873 0,1.09451 -0.58291,1.74873 -0.58291,0.65112 -1.5565,0.65112 -0.97668,0 -1.56269,-0.65112 -0.58291,-0.65112 -0.58291,-1.74873 0,-1.09761 0.58291,-1.74873 0.58601,-0.65422 1.56269,-0.65422 z m -4.56716,0.70073 -0.84956,2.30373 h 1.70222 z m -0.35347,-0.61702 h 0.71004 l 1.76423,4.62918 h -0.65112 l -0.42168,-1.18753 h -2.0867 l -0.42168,1.18753 h -0.66042 z m -5.96863,0 h 0.62632 v 1.89756 h 2.27583 v -1.89756 h 0.62632 v 4.62918 h -0.62632 v -2.20452 h -2.27583 v 2.20452 h -0.62632 z m -0.97358,0.35657 v 0.66042 q -0.31626,-0.29455 -0.67593,-0.44028 -0.35656,-0.14573 -0.75964,-0.14573 -0.79375,0 -1.21543,0.48679 -0.42168,0.4837 -0.42168,1.40147 0,0.91467 0.42168,1.40146 0.42168,0.48369 1.21543,0.48369 0.40308,0 0.75964,-0.14572 0.35967,-0.14573 0.67593,-0.44029 v 0.65423 q -0.32866,0.22324 -0.69763,0.33486 -0.36587,0.11162 -0.77515,0.11162 -1.0511,0 -1.65571,-0.64182 -0.60461,-0.64492 -0.60461,-1.75803 0,-1.11621 0.60461,-1.75803 0.60461,-0.64492 1.65571,-0.64492 0.41548,0 0.78135,0.11162 0.36897,0.10852 0.69143,0.32866 z m 13.93991,-26.01337 c -7.15963,0 -12.9642,5.80457 -12.9642,12.96498 a 12.964982,12.964982 0 0 0 0.84728,4.59512 c 0.18992,-0.49723 0.40781,-0.98259 0.68241,-1.43841 0.1398,-0.23213 0.29359,-0.45714 0.3962,-0.70694 0.10288,-0.2506 0.15036,-0.53337 0.0717,-0.79215 -0.0448,-0.14719 -0.12925,-0.28014 -0.22052,-0.40359 -0.0915,-0.12397 -0.19177,-0.24109 -0.27513,-0.37061 -0.21208,-0.32894 -0.30942,-0.73385 -0.25429,-1.12108 0.0554,-0.38777 0.26431,-0.75443 0.57927,-0.98708 0.28067,-0.20734 0.63519,-0.30072 0.9855,-0.28753 a 1.7568012,1.7568012 0 0 1 0.34556,0.0475 c 0.45265,0.11 0.85202,0.39304 1.14825,0.75179 0.36718,0.44579 0.58296,1.00976 0.63572,1.58481 0.0533,0.57505 -0.0528,1.16065 -0.27487,1.69349 -0.39831,0.9549 -1.15062,1.72568 -1.56476,2.67372 -0.33817,0.77447 -0.43525,1.6381 -0.38908,2.4822 0.006,0.0786 0.0169,0.15669 0.0237,0.2353 a 12.964982,12.964982 0 0 0 3.61938,3.18044 17.628682,17.628682 0 0 1 -0.12873,-2.11027 c 0.002,-0.56133 0.0303,-1.12108 0.0844,-1.67503 -0.34107,-0.23476 -0.65075,-0.5091 -0.87049,-0.85808 -0.39092,-0.62174 -0.46478,-1.40861 -0.30388,-2.12531 0.16091,-0.7167 0.54076,-1.36957 0.99711,-1.94488 0.75284,-0.94831 1.73622,-1.71565 2.83515,-2.2237 -0.0317,-0.0435 -0.0633,-0.0881 -0.0897,-0.12556 -0.40465,-0.65498 -0.64363,-1.40966 -0.70167,-2.17754 -0.0591,-0.77658 0.0633,-1.55421 0.11475,-2.33106 0.0369,-0.54181 0.039,-1.08415 0.0707,-1.62623 0.0369,-0.62701 0.11342,-1.25482 0.28937,-1.85756 0.0638,-0.21842 0.14191,-0.43656 0.26589,-0.62781 a 1.4006929,1.4006929 0 0 1 0.59431,-0.51543 c 0.27354,-0.10815 0.51121,-0.13137 0.77552,-0.087 0.22105,0.0475 0.42549,0.15695 0.6046,0.29544 0.17937,0.13769 0.33421,0.30414 0.48061,0.47665 a 7.2975837,7.2975837 0 0 1 1.03773,1.61595 3.5711075,3.5711075 0 0 1 1.09206,0 7.2865047,7.2865047 0 0 1 1.03826,-1.61621 c 0.14613,-0.17251 0.3015,-0.33896 0.48061,-0.47692 0.17937,-0.13822 0.38354,-0.24796 0.60486,-0.29491 a 1.2680096,1.2680096 0 0 1 0.78001,0.087 1.4022756,1.4022756 0 0 1 0.5943,0.51702 c 0.12398,0.19071 0.20206,0.40781 0.2659,0.62648 0.17568,0.60275 0.25217,1.23055 0.2891,1.85704 0.0317,0.54234 0.0343,1.08626 0.0712,1.62755 0.0514,0.77711 0.17489,1.55368 0.11607,2.33 a 4.854944,4.854944 0 0 1 -0.70378,2.17807 c -0.0317,0.0501 -0.0702,0.0957 -0.10287,0.14508 0.24637,0.2775 0.59799,0.51332 0.89792,0.61409 a 1.9556944,1.9556944 0 0 0 1.04827,0.0427 1.6504963,1.6504963 0 0 0 0.5339,-0.22633 1.252974,1.252974 0 0 0 0.397,-0.41783 c 0.1187,-0.20839 0.16618,-0.44844 0.19256,-0.68716 0.0673,-0.60881 0,-1.22396 -0.0501,-1.83436 -0.0343,-0.3962 -0.062,-0.79926 0.0269,-1.18702 0.0601,-0.26247 0.17779,-0.51913 0.37458,-0.70246 a 1.1057824,1.1057824 0 0 1 0.46478,-0.25323 1.3120615,1.3120615 0 0 1 0.53021,-0.029 c 0.37985,0.0554 0.73543,0.27275 0.94751,0.59219 0.12055,0.18148 0.19388,0.39119 0.23793,0.60486 0.0438,0.21366 0.0599,0.43128 0.0717,0.64891 0.0412,0.76049 0.0396,1.52203 0.0185,2.28358 -0.0177,0.66473 -0.0554,1.34793 -0.32129,1.95727 -0.34186,0.78212 -1.03034,1.36588 -1.77394,1.78529 a 7.051737,7.051737 0 0 1 -1.58693,0.64891 c 0.48193,1.53839 0.73279,3.24059 0.73279,4.96705 a 17.598875,17.598875 0 0 1 -0.13452,2.12557 12.964455,12.964455 0 0 0 6.38357,-11.15225 c -7.8e-4,-7.16068 -5.80535,-12.96498 -12.96497,-12.96498 z m -3.62598,15.98162 v 1.48299 a 1.8799885,1.8799885 0 0 1 1.08336,0.36244 1.7378088,1.7378088 0 0 1 0.55606,0.68056 c 0.12134,0.27038 0.16618,0.57585 0.11606,0.86785 a 1.4930173,1.4930173 0 0 1 -0.33184,0.708 1.6468034,1.6468034 0 0 1 -0.63572,0.45793 1.7383364,1.7383364 0 0 1 -0.78792,0.12213 v 3.73122 l 7.76211,-4.20867 -7.76237,-4.20471 z"
         inkscape:connector-curvature="0" />
    </g>
    <g
       id="g7454"
       transform="translate(-4.0090429,-36.615925)">
      <rect
         y="151.30215"
         x="219.14363"
         height="34.260708"
         width="61.13765"
         id="rect7444"
         style="color:#000000;clip-rule:nonzero;display:inline;overflow:visible;visibility:visible;opacity:1;isolation:auto;mix-blend-mode:normal;color-interpolation:sRGB;color-interpolation-filters:linearRGB;solid-color:#000000;solid-opacity:1;fill:#ee4c4c;fill-opacity:1;fill-rule:nonzero;stroke:none;stroke-width:0.4922826;stroke-linecap:butt;stroke-linejoin:miter;stroke-miterlimit:4;stroke-dasharray:none;stroke-dashoffset:0;stroke-opacity:1;color-rendering:auto;image-rendering:auto;shape-rendering:auto;text-rendering:auto;enable-background:accumulate" />
      <path
         id="path5521-2-7"
         transform="matrix(0.26458333,0,0,0.26458333,0,86.99998)"
         d="m 943.79297,250.37305 c -27.06002,0 -48.99805,21.93895 -48.99805,49.00195 0.008,5.93526 1.09264,11.81979 3.20313,17.36719 0.0635,-0.16592 0.13225,-0.3292 0.19726,-0.49414 0.11339,0.31823 0.2177,0.63918 0.33789,0.95507 4e-5,0.0302 0.004,0.0583 0.0156,0.0859 0.0635,-0.1663 0.13188,-0.33032 0.19726,-0.49609 0.10394,0.28989 0.19899,0.58298 0.3086,0.87109 7e-5,0.059 0.0104,0.1167 0.0293,0.17188 0.0684,-0.17953 0.1426,-0.3568 0.2129,-0.53516 0.0986,0.27439 0.1894,0.55145 0.29296,0.82422 1.2e-4,0.0884 0.0151,0.17699 0.0469,0.25977 0.0722,-0.18898 0.1521,-0.37455 0.22656,-0.5625 0.0915,0.2536 0.17353,0.50962 0.26953,0.76171 1.2e-4,0.11793 0.0225,0.23535 0.0645,0.34571 0.0707,-0.18482 0.14775,-0.36699 0.2207,-0.55078 0.0805,0.22148 0.15242,0.44555 0.23633,0.66601 1.5e-4,0.14778 0.0263,0.29557 0.0781,0.4336 0.0752,-0.1973 0.15652,-0.39181 0.23438,-0.5879 0.0748,0.20486 0.14127,0.41145 0.21875,0.61524 2.2e-4,0.17726 0.0341,0.35414 0.0957,0.51953 0.0767,-0.20107 0.16049,-0.39963 0.24023,-0.59961 0.0661,0.18028 0.12338,0.36359 0.19141,0.54297 2.7e-4,0.20674 0.038,0.41034 0.11133,0.60352 0.0809,-0.21128 0.16805,-0.41888 0.25195,-0.62891 0.0593,0.16101 0.11065,0.32427 0.17188,0.48437 3e-4,0.23622 0.043,0.47065 0.12695,0.69141 0.082,-0.21505 0.17044,-0.42689 0.25586,-0.64062 0.0507,0.13681 0.0943,0.27551 0.14648,0.4121 3.4e-4,0.26571 0.0501,0.529 0.14454,0.77735 0.085,-0.22262 0.17523,-0.44285 0.26367,-0.66406 0.0427,0.11489 0.0792,0.23118 0.12304,0.3457 3.4e-4,0.29518 0.0574,0.58925 0.16211,0.86523 0.0873,-0.22866 0.17883,-0.45449 0.26953,-0.68164 0.034,0.0922 0.0648,0.1855 0.0996,0.27735 3.4e-4,0.32466 0.0601,0.6476 0.17578,0.95117 0.09,-0.23584 0.18752,-0.46891 0.28126,-0.70313 0.0265,0.0711 0.0489,0.14379 0.0762,0.21485 3.7e-4,0.35414 0.0655,0.70598 0.1914,1.03711 0.0922,-0.24151 0.19073,-0.48093 0.28711,-0.72071 0.0189,0.0473 0.0342,0.0957 0.0508,0.14258 4.6e-4,0.38381 0.0706,0.7643 0.20704,1.12305 0.065,-0.17008 0.13622,-0.33676 0.20312,-0.50586 -0.28535,1.71417 -0.35854,3.4703 -0.26367,5.20703 0.0227,0.29707 0.0622,0.59352 0.0879,0.89063 1.43236,1.83435 2.99321,3.55772 4.66406,5.16406 0.37682,0.38502 0.7552,0.76853 1.14453,1.14062 0.2075,0.20485 0.4156,0.4085 0.62696,0.60938 0.26872,0.27175 0.53156,0.54932 0.80664,0.81445 0.40664,0.41715 0.81675,0.83081 1.23828,1.23242 0.11943,0.11755 0.23452,0.23944 0.35547,0.35547 0.20258,0.20145 0.40121,0.406 0.60742,0.60352 0.16025,0.15836 0.31596,0.3205 0.47851,0.47656 0.1697,0.16819 0.33562,0.34016 0.50782,0.50586 0.20296,0.20145 0.40271,0.40588 0.60937,0.60351 0.14854,0.14665 0.29294,0.29707 0.44336,0.44141 0.1818,0.18028 0.3583,0.36586 0.54297,0.54297 0.18028,0.17877 0.35752,0.36132 0.54101,0.53711 0.17538,0.17386 0.34734,0.35072 0.5254,0.52148 0.16365,0.16215 0.32239,0.32883 0.48828,0.48829 0.18179,0.18066 0.36021,0.36548 0.54492,0.54296 0.1731,0.17159 0.34202,0.34695 0.51758,0.51563 0.17272,0.17159 0.34205,0.34698 0.51758,0.51562 0.19388,0.19238 0.38477,0.38743 0.58203,0.57618 0.15496,0.15307 0.30577,0.30994 0.46289,0.46093 0.19313,0.192 0.38354,0.38611 0.58008,0.57422 0.15458,0.15345 0.30389,0.31179 0.46093,0.46289 0.18218,0.18142 0.36168,0.36511 0.54688,0.54297 0.18179,0.18066 0.35984,0.36548 0.54492,0.54297 0.16139,0.16025 0.31858,0.32466 0.48242,0.48242 0.18822,0.18747 0.37456,0.37683 0.56641,0.56055 0.17386,0.17235 0.34471,0.3481 0.52148,0.51758 0.17499,0.17348 0.3458,0.3511 0.52344,0.52148 0.16327,0.16214 0.3224,0.32882 0.48828,0.48828 0.18595,0.1852 0.36928,0.37342 0.55859,0.55469 0.16441,0.16328 0.3254,0.32994 0.49219,0.49023 0.18822,0.18747 0.37268,0.37878 0.56446,0.5625 0.16403,0.1629 0.32539,0.32841 0.49218,0.48829 0.0189,0.0189 0.0386,0.0409 0.0586,0.0605 -0.20523,0.76883 -0.32675,1.60114 -0.36719,2.4961 -0.008,-0.0227 -0.16406,-0.43555 -0.16406,-0.43555 h -0.1875 -0.15039 c -0.0151,-0.034 -0.20899,-0.54883 -0.20899,-0.54883 h -0.17383 -0.16406 c -0.0151,-0.034 -0.20898,-0.54687 -0.20898,-0.54687 h -0.16211 -0.17774 c -0.0151,-0.034 -0.20898,-0.54688 -0.20898,-0.54688 h -0.14844 -0.18945 c -0.0151,-0.034 -0.20899,-0.54687 -0.20899,-0.54687 h -0.13281 -0.20508 c -0.0151,-0.034 -0.20898,-0.54688 -0.20898,-0.54688 h -0.1211 -0.21679 c -0.0151,-0.034 -0.20899,-0.54883 -0.20899,-0.54883 h -0.10742 -0.23437 c -0.0113,-0.034 -0.20703,-0.54492 -0.20703,-0.54492 h -0.0938 -0.24218 c -0.0151,-0.034 -0.20899,-0.54883 -0.20899,-0.54883 h -0.0801 -0.26172 c -0.0113,-0.034 -0.20899,-0.54883 -0.20899,-0.54883 h -0.0664 -0.26368 c -0.0113,-0.034 -0.20898,-0.54687 -0.20898,-0.54687 h -0.0527 -0.29688 c -0.0113,-0.034 -0.20703,-0.54492 -0.20703,-0.54492 h -0.0391 -0.30274 c -0.0113,-0.034 -0.20898,-0.54883 -0.20898,-0.54883 h -0.0254 -0.30469 c -0.0113,-0.034 -0.20899,-0.54688 -0.20899,-0.54688 h -0.0156 -0.32422 l -0.20898,-0.54687 h -2.6836 l -2.65429,6.95313 v -0.38672 h -0.14063 -0.4082 v -0.54688 h -0.12891 -0.41797 v -0.54687 h -0.11718 -0.42969 v -0.54688 h -0.10742 -0.43946 v -0.54883 h -0.0937 -0.45703 v -0.54492 h -0.082 -0.45898 v -0.54883 h -0.0723 -0.47656 v -0.54883 h -0.0586 -0.47851 v -0.54687 h -0.0469 -0.51562 v -0.54492 h -0.0332 -0.51563 v -0.54883 h -0.0234 -0.51367 v -0.54688 h -0.0117 -0.54101 v -0.54687 h -2.36719 v 7.17187 h -1.48633 v -0.0586 h -0.1543 -0.39257 v -0.54687 h -0.14063 -0.4082 v -0.54688 h -0.12891 -0.41797 v -0.54687 h -0.11718 -0.42969 v -0.54688 h -0.10547 -0.43945 v -0.54883 h -0.0937 -0.45703 v -0.54492 h -0.082 -0.45898 v -0.54883 h -0.0723 -0.47656 v -0.54883 h -0.0606 -0.47656 v -0.54687 h -0.0469 -0.51367 v -0.54492 h -0.0352 -0.51563 v -0.54883 h -0.0215 -0.51367 v -0.54688 h -0.0117 -0.54102 v -0.54687 h -2.36718 v 5.09766 c -0.12851,-0.0866 -0.26079,-0.16515 -0.39258,-0.24414 v -0.22266 h -0.002 c -0.0227,-0.0151 -0.0517,-0.0295 -0.0781,-0.0371 -0.15345,-0.10469 -0.31107,-0.20043 -0.46875,-0.29492 v -0.21485 c -0.0189,-0.0151 -0.0437,-0.0275 -0.0664,-0.0312 -0.15458,-0.10544 -0.31181,-0.20163 -0.4707,-0.29687 v -0.2207 c -0.0189,-0.0113 -0.0338,-0.0177 -0.0527,-0.0215 -0.16555,-0.11301 -0.33526,-0.21744 -0.50586,-0.31836 v -0.20312 c -0.0113,-0.008 -0.0228,-0.0157 -0.0391,-0.0195 -0.16819,-0.1149 -0.34053,-0.21947 -0.51367,-0.32227 v -0.20703 c -0.008,-0.008 -0.0198,-0.008 -0.0273,-0.0117 -0.16743,-0.11414 -0.33753,-0.21984 -0.50977,-0.32227 v -0.21289 c -0.004,-0.003 -0.008,-0.004 -0.0117,-0.008 -0.17726,-0.12094 -0.35827,-0.2325 -0.54101,-0.33984 v -0.20117 c -0.81249,-0.55473 -1.68359,-0.96874 -2.61328,-1.24219 -0.92187,-0.2812 -1.9062,-0.42188 -2.95313,-0.42188 -2.64839,0 -4.7344,0.8125 -6.25781,2.4375 -1.52341,1.61719 -2.28516,3.83204 -2.28516,6.64454 0,2.80471 0.76175,5.01952 2.28516,6.64453 0.15118,0.16063 0.31216,0.30653 0.47461,0.45117 0.0265,0.0302 0.0517,0.0655 0.0801,0.0957 0.008,0.008 0.0199,0.0117 0.0312,0.0117 0.0862,0.0915 0.18153,0.17164 0.27148,0.25781 0.0782,0.0918 0.14965,0.18891 0.23242,0.27735 0.0151,0.0151 0.0379,0.0234 0.0625,0.0234 0.0797,0.0843 0.16761,0.15854 0.25,0.23829 0.0809,0.0952 0.1564,0.19526 0.24219,0.2871 0.0227,0.0227 0.0521,0.0332 0.0918,0.0332 0.059,0.0624 0.12507,0.11568 0.18554,0.17578 0.0934,0.11187 0.18147,0.22702 0.28125,0.33398 2.1515,2.07304 4.84893,4.74026 7.70508,7.58203 h 170.13479 v -19.33593 l -20.6133,-21.89844 c 0,0 -34.7518,-37.28447 -52.23047,-57.4043 -0.49969,-0.60744 -1.01203,-1.2057 -1.54102,-1.78711 -0.034,-0.0416 -0.0723,-0.0815 -0.10742,-0.12304 -0.24453,-0.3001 -0.49663,-0.59264 -0.74805,-0.88672 -0.5173,-0.62933 -1.04955,-1.24573 -1.59765,-1.84766 -0.0945,-0.11225 -0.19344,-0.22053 -0.28907,-0.33203 -0.14437,-0.17461 -0.29862,-0.34091 -0.44531,-0.51367 -8.98609,-10.99665 -22.65174,-18.01953 -37.95898,-18.01953 z"
         style="font-style:normal;font-variant:normal;font-weight:normal;font-stretch:normal;font-size:medium;line-height:6.61458302px;font-family:'Arabic Newspaper';-inkscape-font-specification:'Arabic Newspaper';text-align:start;letter-spacing:0px;word-spacing:0px;writing-mode:lr-tb;text-anchor:start;opacity:0.10800003;fill:url(#linearGradient6365-6-8);fill-opacity:1;stroke:none;stroke-width:0.99999994;stroke-linecap:butt;stroke-linejoin:miter;stroke-opacity:1"
         inkscape:connector-curvature="0" />
      <path
         id="path5367-7-0"
         style="font-style:normal;font-variant:normal;font-weight:normal;font-stretch:normal;font-size:medium;line-height:6.61458302px;font-family:'Arabic Newspaper';-inkscape-font-specification:'Arabic Newspaper';text-align:start;letter-spacing:0px;word-spacing:0px;writing-mode:lr-tb;text-anchor:start;fill:#ffffff;fill-opacity:1;stroke:none;stroke-width:0.26458332px;stroke-linecap:butt;stroke-linejoin:miter;stroke-opacity:1"
         d="m 263.63408,178.90137 h 0.67284 l 1.15032,1.72083 1.15652,-1.72083 h 0.67283 l -1.4883,2.22312 1.5875,2.40606 h -0.67281 l -1.30226,-1.96888 -1.31155,1.96888 h -0.67591 l 1.65261,-2.47117 z m -1.64951,0 h 0.62633 v 4.62918 h -0.62633 z m -3.53465,0 h 0.62631 v 4.10208 h 2.25413 v 0.5271 h -2.88044 z m -3.6587,0 h 2.66031 v 0.5271 h -2.03399 v 1.36426 h 1.83555 v 0.5271 h -1.83555 v 2.21072 h -0.62632 z m -1.25573,0.15193 v 0.61081 q -0.35657,-0.17053 -0.67283,-0.25424 -0.31626,-0.0837 -0.61082,-0.0837 -0.51159,0 -0.79064,0.19844 -0.27596,0.19843 -0.27596,0.5643 0,0.30696 0.18294,0.46509 0.18603,0.15503 0.70073,0.25115 l 0.37827,0.0775 q 0.70073,0.13332 1.0325,0.47129 0.33486,0.33486 0.33486,0.89917 0,0.67282 -0.45269,1.02009 -0.44958,0.34726 -1.32085,0.34726 -0.32866,0 -0.70073,-0.0744 -0.36897,-0.0744 -0.76584,-0.22014 V 182.681 q 0.38137,0.21394 0.74724,0.32246 0.36587,0.10852 0.71933,0.10852 0.53641,0 0.82786,-0.21084 0.29146,-0.21084 0.29146,-0.60151 0,-0.34106 -0.21084,-0.5333 -0.20774,-0.19224 -0.68523,-0.28836 l -0.38137,-0.0744 q -0.70074,-0.13952 -1.0139,-0.43718 -0.31316,-0.29766 -0.31316,-0.82785 0,-0.61392 0.43099,-0.96739 0.43408,-0.35346 1.19372,-0.35346 0.32556,0 0.66353,0.0589 0.33796,0.0589 0.69143,0.17673 z m -5.90042,0.27285 q -0.68213,0 -1.0852,0.5085 -0.39998,0.50849 -0.39998,1.38596 0,0.87436 0.39998,1.38286 0.40307,0.5085 1.0852,0.5085 0.68213,0 1.07901,-0.5085 0.39997,-0.5085 0.39997,-1.38286 0,-0.87747 -0.39997,-1.38596 -0.39688,-0.5085 -1.07901,-0.5085 z m 0,-0.50849 q 0.97359,0 1.5565,0.65422 0.58291,0.65112 0.58291,1.74873 0,1.09451 -0.58291,1.74873 -0.58291,0.65112 -1.5565,0.65112 -0.97668,0 -1.56269,-0.65112 -0.58291,-0.65112 -0.58291,-1.74873 0,-1.09761 0.58291,-1.74873 0.58601,-0.65422 1.56269,-0.65422 z m -4.56716,0.70073 -0.84956,2.30373 h 1.70222 z m -0.35347,-0.61702 h 0.71004 l 1.76423,4.62918 h -0.65112 l -0.42168,-1.18753 h -2.0867 l -0.42168,1.18753 h -0.66042 z m -5.96863,0 h 0.62632 v 1.89756 h 2.27583 v -1.89756 h 0.62632 v 4.62918 h -0.62632 v -2.20452 h -2.27583 v 2.20452 h -0.62632 z m -0.97359,0.35657 v 0.66042 q -0.31625,-0.29455 -0.67593,-0.44028 -0.35655,-0.14573 -0.75963,-0.14573 -0.79375,0 -1.21543,0.48679 -0.42168,0.4837 -0.42168,1.40147 0,0.91467 0.42168,1.40146 0.42168,0.48369 1.21543,0.48369 0.40308,0 0.75963,-0.14572 0.35968,-0.14573 0.67593,-0.44029 v 0.65423 q -0.32865,0.22324 -0.69762,0.33486 -0.36587,0.11162 -0.77515,0.11162 -1.0511,0 -1.65571,-0.64182 -0.60461,-0.64492 -0.60461,-1.75803 0,-1.11621 0.60461,-1.75803 0.60461,-0.64492 1.65571,-0.64492 0.41548,0 0.78135,0.11162 0.36897,0.10852 0.69142,0.32866 z m 13.93992,-26.01337 c -7.15963,0 -12.9642,5.80457 -12.9642,12.96498 a 12.964982,12.964982 0 0 0 0.84728,4.59512 c 0.18992,-0.49723 0.40781,-0.98259 0.68241,-1.43841 0.1398,-0.23213 0.29359,-0.45714 0.3962,-0.70694 0.10288,-0.2506 0.15036,-0.53337 0.0717,-0.79215 -0.0448,-0.14719 -0.12925,-0.28014 -0.22053,-0.40359 -0.0915,-0.12397 -0.19177,-0.24109 -0.27512,-0.37061 -0.21208,-0.32894 -0.30942,-0.73385 -0.25429,-1.12108 0.0554,-0.38777 0.26431,-0.75443 0.57927,-0.98708 0.28067,-0.20734 0.63519,-0.30072 0.9855,-0.28753 a 1.7568012,1.7568012 0 0 1 0.34556,0.0475 c 0.45265,0.11 0.85202,0.39304 1.14825,0.75179 0.36718,0.44579 0.58296,1.00976 0.63572,1.58481 0.0533,0.57505 -0.0528,1.16065 -0.27487,1.69349 -0.39831,0.9549 -1.15062,1.72568 -1.56476,2.67372 -0.33817,0.77447 -0.43525,1.6381 -0.38908,2.4822 0.006,0.0786 0.0169,0.15669 0.0237,0.2353 a 12.964982,12.964982 0 0 0 3.61938,3.18044 17.628682,17.628682 0 0 1 -0.12873,-2.11027 c 0.002,-0.56133 0.0303,-1.12108 0.0844,-1.67503 -0.34107,-0.23476 -0.65075,-0.5091 -0.87049,-0.85808 -0.39092,-0.62174 -0.46478,-1.40861 -0.30388,-2.12531 0.16091,-0.7167 0.54076,-1.36957 0.99711,-1.94488 0.75284,-0.94831 1.73622,-1.71565 2.83515,-2.2237 -0.0317,-0.0435 -0.0633,-0.0881 -0.0897,-0.12556 -0.40465,-0.65498 -0.64363,-1.40966 -0.70167,-2.17754 -0.0591,-0.77658 0.0633,-1.55421 0.11475,-2.33106 0.0369,-0.54181 0.039,-1.08415 0.0707,-1.62623 0.0369,-0.62701 0.11342,-1.25482 0.28937,-1.85756 0.0638,-0.21842 0.14191,-0.43656 0.26589,-0.62781 a 1.4006929,1.4006929 0 0 1 0.59431,-0.51543 c 0.27354,-0.10815 0.51121,-0.13137 0.77552,-0.087 0.22105,0.0475 0.42549,0.15695 0.6046,0.29544 0.17937,0.13769 0.33421,0.30414 0.48061,0.47665 a 7.2975838,7.2975838 0 0 1 1.03773,1.61595 3.5711074,3.5711074 0 0 1 1.09206,0 7.2865049,7.2865049 0 0 1 1.03826,-1.61621 c 0.14613,-0.17251 0.3015,-0.33896 0.48061,-0.47692 0.17937,-0.13822 0.38354,-0.24796 0.60486,-0.29491 a 1.2680096,1.2680096 0 0 1 0.78001,0.087 1.4022756,1.4022756 0 0 1 0.5943,0.51702 c 0.12398,0.19071 0.20206,0.40781 0.2659,0.62648 0.17568,0.60275 0.25217,1.23055 0.2891,1.85704 0.0317,0.54234 0.0343,1.08626 0.0712,1.62755 0.0514,0.77711 0.17489,1.55368 0.11607,2.33 a 4.8549441,4.8549441 0 0 1 -0.70378,2.17807 c -0.0317,0.0501 -0.0702,0.0957 -0.10287,0.14508 0.24637,0.2775 0.59799,0.51332 0.89792,0.61409 a 1.9556944,1.9556944 0 0 0 1.04827,0.0427 1.6504963,1.6504963 0 0 0 0.5339,-0.22633 1.252974,1.252974 0 0 0 0.397,-0.41783 c 0.1187,-0.20839 0.16618,-0.44844 0.19256,-0.68716 0.0673,-0.60881 0,-1.22396 -0.0501,-1.83436 -0.0343,-0.3962 -0.062,-0.79926 0.0269,-1.18702 0.0601,-0.26247 0.17779,-0.51913 0.37458,-0.70246 a 1.1057824,1.1057824 0 0 1 0.46478,-0.25323 1.3120615,1.3120615 0 0 1 0.53021,-0.029 c 0.37985,0.0554 0.73544,0.27275 0.94752,0.59219 0.12055,0.18148 0.19387,0.39119 0.23793,0.60486 0.0438,0.21366 0.0599,0.43128 0.0717,0.64891 0.0412,0.76049 0.0396,1.52203 0.0185,2.28358 -0.0177,0.66473 -0.0554,1.34793 -0.3213,1.95727 -0.34186,0.78212 -1.03034,1.36588 -1.77394,1.78529 a 7.0517372,7.0517372 0 0 1 -1.58693,0.64891 c 0.48193,1.53839 0.73279,3.24059 0.73279,4.96705 a 17.598875,17.598875 0 0 1 -0.1345,2.12557 12.964455,12.964455 0 0 0 6.38357,-11.15225 c -7.8e-4,-7.16068 -5.80535,-12.96498 -12.96497,-12.96498 z m -3.62598,15.98162 v 1.48299 a 1.8799885,1.8799885 0 0 1 1.08336,0.36244 1.7378088,1.7378088 0 0 1 0.55606,0.68056 c 0.12134,0.27038 0.16618,0.57585 0.11606,0.86785 a 1.4930173,1.4930173 0 0 1 -0.33184,0.708 1.6468034,1.6468034 0 0 1 -0.63572,0.45793 1.7383364,1.7383364 0 0 1 -0.78792,0.12213 v 3.73122 l 7.76211,-4.20867 -7.76237,-4.20471 z"
         inkscape:connector-curvature="0" />
    </g>
    <rect
       style="color:#000000;clip-rule:nonzero;display:inline;overflow:visible;visibility:visible;opacity:1;isolation:auto;mix-blend-mode:normal;color-interpolation:sRGB;color-interpolation-filters:linearRGB;solid-color:#000000;solid-opacity:1;fill:#ff8686;fill-opacity:1;fill-rule:nonzero;stroke:none;stroke-width:0.71480024;stroke-linecap:butt;stroke-linejoin:miter;stroke-miterlimit:4;stroke-dasharray:none;stroke-dashoffset:0;stroke-opacity:1;color-rendering:auto;image-rendering:auto;shape-rendering:auto;text-rendering:auto;enable-background:accumulate"
       id="rect7408-9"
       width="92.141388"
       height="55.666687"
       x="147.16962"
       y="172.40474" />
    <path
       d="m 194.04098,174.75767 a 25.886282,25.886282 0 0 1 24.60061,26.6614 25.886282,25.886282 0 0 1 -26.21324,25.07761 25.886282,25.886282 0 0 1 -25.54645,-25.75653 25.886282,25.886282 0 0 1 25.29145,-26.00698"
       sodipodi:open="true"
       sodipodi:end="4.6894204"
       sodipodi:start="4.7615898"
       sodipodi:ry="25.886282"
       sodipodi:rx="25.886282"
       sodipodi:cy="200.61263"
       sodipodi:cx="192.76787"
       sodipodi:type="arc"
       id="path4485-1-3-0"
       style="opacity:1;fill:#ee4c4c;fill-opacity:1;fill-rule:nonzero;stroke:none;stroke-width:0.10644536;stroke-linecap:square;stroke-linejoin:round;stroke-miterlimit:4;stroke-dasharray:none;stroke-dashoffset:0;stroke-opacity:1" />
    <path
       style="font-style:normal;font-variant:normal;font-weight:normal;font-stretch:normal;font-size:medium;line-height:6.61458302px;font-family:'Arabic Newspaper';-inkscape-font-specification:'Arabic Newspaper';text-align:start;letter-spacing:0px;word-spacing:0px;writing-mode:lr-tb;text-anchor:start;opacity:0.10800003;fill:url(#linearGradient7512);fill-opacity:1;stroke:none;stroke-width:0.99999994;stroke-linecap:butt;stroke-linejoin:miter;stroke-opacity:1"
       d="M 728.57031 372.01172 C 701.51029 372.01172 679.57227 393.95067 679.57227 421.01367 C 679.57982 426.94893 680.66494 432.83346 682.77539 438.38086 C 682.83889 438.21494 682.90765 438.05166 682.97266 437.88672 C 683.08604 438.20495 683.19036 438.5259 683.31055 438.8418 C 683.31058 438.87203 683.31288 438.90014 683.32422 438.92773 C 683.38771 438.76144 683.4561 438.59741 683.52148 438.43164 C 683.62542 438.72153 683.72047 439.01462 683.83008 439.30273 C 683.83015 439.3617 683.84243 439.41943 683.86133 439.47461 C 683.92974 439.29508 684.00392 439.11781 684.07422 438.93945 C 684.17286 439.21385 684.26363 439.4909 684.36719 439.76367 C 684.3673 439.85211 684.38231 439.94067 684.41406 440.02344 C 684.48625 439.83446 684.56422 439.64889 684.63867 439.46094 C 684.73014 439.71454 684.8122 439.97056 684.9082 440.22266 C 684.90832 440.34058 684.93266 440.458 684.97461 440.56836 C 685.04529 440.38354 685.12237 440.20138 685.19531 440.01758 C 685.27582 440.23906 685.34774 440.46313 685.43164 440.68359 C 685.43179 440.83137 685.45799 440.97916 685.50977 441.11719 C 685.58498 440.9199 685.66628 440.72538 685.74414 440.5293 C 685.81898 440.73415 685.88541 440.94074 685.96289 441.14453 C 685.96312 441.32179 685.99699 441.49867 686.05859 441.66406 C 686.13532 441.46299 686.21908 441.26443 686.29883 441.06445 C 686.36497 441.24474 686.4222 441.42805 686.49023 441.60742 C 686.4905 441.81416 686.52824 442.01777 686.60156 442.21094 C 686.68244 441.99966 686.76961 441.79206 686.85352 441.58203 C 686.91285 441.74304 686.96416 441.90631 687.02539 442.06641 C 687.02569 442.30263 687.06844 442.53705 687.15234 442.75781 C 687.23436 442.54276 687.32279 442.33092 687.4082 442.11719 C 687.45885 442.25401 687.50253 442.3927 687.55469 442.5293 C 687.55503 442.795 687.60473 443.05829 687.69922 443.30664 C 687.78426 443.08403 687.87445 442.86379 687.96289 442.64258 C 688.0056 442.75748 688.04209 442.87376 688.08594 442.98828 C 688.08628 443.28346 688.1414 443.57753 688.24609 443.85352 C 688.3334 443.62485 688.42687 443.39902 688.51758 443.17188 C 688.55159 443.2641 688.58242 443.35738 688.61719 443.44922 C 688.61753 443.77388 688.67732 444.09682 688.79297 444.40039 C 688.88292 444.16455 688.98049 443.93148 689.07422 443.69727 C 689.10068 443.76832 689.12318 443.84105 689.15039 443.91211 C 689.15077 444.26625 689.21594 444.61809 689.3418 444.94922 C 689.43402 444.70771 689.53253 444.46829 689.62891 444.22852 C 689.6478 444.27576 689.66306 444.32423 689.67969 444.37109 C 689.68014 444.7549 689.75028 445.13539 689.88672 445.49414 C 689.95173 445.32406 690.02295 445.15738 690.08984 444.98828 C 689.80449 446.70245 689.73131 448.45858 689.82617 450.19531 C 689.84885 450.49238 689.88836 450.78883 689.91406 451.08594 C 691.34643 452.92029 692.90727 454.64366 694.57812 456.25 C 694.95494 456.63502 695.33333 457.01853 695.72266 457.39062 C 695.93015 457.59548 696.13826 457.79912 696.34961 458 C 696.61833 458.27175 696.88118 458.54932 697.15625 458.81445 C 697.56289 459.2316 697.973 459.64526 698.39453 460.04688 C 698.51396 460.16442 698.62906 460.28631 698.75 460.40234 C 698.95258 460.60379 699.15121 460.80834 699.35742 461.00586 C 699.51767 461.16422 699.67338 461.32637 699.83594 461.48242 C 700.00564 461.65061 700.17155 461.82259 700.34375 461.98828 C 700.54671 462.18973 700.74646 462.39417 700.95312 462.5918 C 701.10166 462.73844 701.24606 462.88886 701.39648 463.0332 C 701.57828 463.21349 701.75479 463.39906 701.93945 463.57617 C 702.11974 463.75494 702.29697 463.9375 702.48047 464.11328 C 702.65584 464.28714 702.82781 464.46401 703.00586 464.63477 C 703.16951 464.79691 703.32826 464.96359 703.49414 465.12305 C 703.67594 465.30371 703.85436 465.48853 704.03906 465.66602 C 704.21216 465.83761 704.38108 466.01296 704.55664 466.18164 C 704.72937 466.35323 704.8987 466.52862 705.07422 466.69727 C 705.26811 466.88964 705.459 467.08469 705.65625 467.27344 C 705.81121 467.42651 705.96203 467.58338 706.11914 467.73438 C 706.31227 467.92638 706.50268 468.12049 706.69922 468.30859 C 706.8538 468.46204 707.00312 468.62038 707.16016 468.77148 C 707.34233 468.9529 707.52183 469.13659 707.70703 469.31445 C 707.88883 469.49511 708.06687 469.67994 708.25195 469.85742 C 708.41334 470.01767 708.57053 470.18209 708.73438 470.33984 C 708.9226 470.52731 709.10893 470.71667 709.30078 470.90039 C 709.47464 471.07274 709.6455 471.24849 709.82227 471.41797 C 709.99726 471.59145 710.16807 471.76907 710.3457 471.93945 C 710.50898 472.10159 710.6681 472.26828 710.83398 472.42773 C 711.01994 472.61293 711.20326 472.80116 711.39258 472.98242 C 711.55699 473.1457 711.71798 473.31237 711.88477 473.47266 C 712.07299 473.66012 712.25745 473.85143 712.44922 474.03516 C 712.61325 474.19805 712.77462 474.36356 712.94141 474.52344 C 712.9603 474.54234 712.97997 474.56433 713 474.58398 C 712.79477 475.35282 712.67325 476.18512 712.63281 477.08008 C 712.62525 477.0574 712.4668 476.64453 712.4668 476.64453 L 712.2793 476.64453 L 712.12891 476.64453 C 712.11379 476.61052 711.91992 476.0957 711.91992 476.0957 L 711.74609 476.0957 L 711.58203 476.0957 C 711.56691 476.06169 711.37305 475.54883 711.37305 475.54883 L 711.21289 475.54883 L 711.0332 475.54883 C 711.01809 475.51481 710.82422 475.00195 710.82422 475.00195 L 710.67773 475.00195 L 710.48633 475.00195 C 710.47121 474.96794 710.27734 474.45508 710.27734 474.45508 L 710.14453 474.45508 L 709.93945 474.45508 C 709.92434 474.42106 709.73047 473.9082 709.73047 473.9082 L 709.60938 473.9082 L 709.39258 473.9082 C 709.37746 473.87419 709.18359 473.35938 709.18359 473.35938 L 709.07617 473.35938 L 708.8418 473.35938 C 708.83046 473.32536 708.63477 472.81445 708.63477 472.81445 L 708.54102 472.81445 L 708.30078 472.81445 C 708.28566 472.78044 708.0918 472.26562 708.0918 472.26562 L 708.01172 472.26562 L 707.75 472.26562 C 707.73866 472.23161 707.54102 471.7168 707.54102 471.7168 L 707.47461 471.7168 L 707.21094 471.7168 C 707.1996 471.68278 707.00195 471.16992 707.00195 471.16992 L 706.94922 471.16992 L 706.65234 471.16992 C 706.64101 471.13591 706.44531 470.625 706.44531 470.625 L 706.40625 470.625 L 706.10352 470.625 C 706.09218 470.59098 705.89453 470.07617 705.89453 470.07617 L 705.86719 470.07617 L 705.5625 470.07617 C 705.55116 470.04216 705.35352 469.5293 705.35352 469.5293 L 705.33984 469.5293 L 705.01562 469.5293 L 704.80664 468.98242 L 702.12305 468.98242 L 699.46875 475.93555 L 699.46875 475.54883 L 699.32812 475.54883 L 698.91992 475.54883 L 698.91992 475.00195 L 698.79102 475.00195 L 698.37305 475.00195 L 698.37305 474.45508 L 698.25586 474.45508 L 697.82617 474.45508 L 697.82617 473.9082 L 697.71875 473.9082 L 697.2793 473.9082 L 697.2793 473.35938 L 697.18555 473.35938 L 696.72852 473.35938 L 696.72852 472.81445 L 696.64648 472.81445 L 696.1875 472.81445 L 696.1875 472.26562 L 696.11523 472.26562 L 695.63867 472.26562 L 695.63867 471.7168 L 695.58008 471.7168 L 695.10156 471.7168 L 695.10156 471.16992 L 695.05469 471.16992 L 694.53906 471.16992 L 694.53906 470.625 L 694.50391 470.625 L 693.98828 470.625 L 693.98828 470.07617 L 693.9668 470.07617 L 693.45312 470.07617 L 693.45312 469.5293 L 693.44141 469.5293 L 692.90039 469.5293 L 692.90039 468.98242 L 690.5332 468.98242 L 690.5332 476.1543 L 689.04688 476.1543 L 689.04688 476.0957 L 688.89258 476.0957 L 688.5 476.0957 L 688.5 475.54883 L 688.35938 475.54883 L 687.95117 475.54883 L 687.95117 475.00195 L 687.82227 475.00195 L 687.4043 475.00195 L 687.4043 474.45508 L 687.28711 474.45508 L 686.85742 474.45508 L 686.85742 473.9082 L 686.75 473.9082 L 686.31055 473.9082 L 686.31055 473.35938 L 686.2168 473.35938 L 685.75977 473.35938 L 685.75977 472.81445 L 685.67773 472.81445 L 685.21875 472.81445 L 685.21875 472.26562 L 685.14648 472.26562 L 684.66992 472.26562 L 684.66992 471.7168 L 684.60938 471.7168 L 684.13281 471.7168 L 684.13281 471.16992 L 684.08594 471.16992 L 683.57227 471.16992 L 683.57227 470.625 L 683.53906 470.625 L 683.02344 470.625 L 683.02344 470.07617 L 683 470.07617 L 682.48633 470.07617 L 682.48633 469.5293 L 682.47461 469.5293 L 681.93359 469.5293 L 681.93359 468.98242 L 679.56641 468.98242 L 679.56641 474.08008 C 679.4379 473.99353 679.30562 473.91493 679.17383 473.83594 L 679.17383 473.61328 L 679.17188 473.61328 C 679.1492 473.59816 679.12021 473.58373 679.09375 473.57617 C 678.9403 473.47148 678.78268 473.37574 678.625 473.28125 L 678.625 473.06641 C 678.6061 473.05129 678.58127 473.03894 678.55859 473.03516 C 678.40401 472.92971 678.24678 472.83353 678.08789 472.73828 L 678.08789 472.51758 C 678.06899 472.50624 678.05405 472.49987 678.03516 472.49609 C 677.86961 472.38309 677.6999 472.27865 677.5293 472.17773 L 677.5293 471.97461 C 677.51796 471.96705 677.50649 471.95886 677.49023 471.95508 C 677.32205 471.84018 677.1497 471.73562 676.97656 471.63281 L 676.97656 471.42578 C 676.969 471.41822 676.95873 471.41784 676.95117 471.41406 C 676.78374 471.29992 676.61364 471.19422 676.44141 471.0918 L 676.44141 470.87891 C 676.43763 470.87592 676.43347 470.87487 676.42969 470.87109 C 676.25243 470.75015 676.07141 470.63859 675.88867 470.53125 L 675.88867 470.33008 C 675.07619 469.77539 674.20508 469.36134 673.27539 469.08789 C 672.35353 468.80669 671.36919 468.66602 670.32227 468.66602 C 667.67388 468.66602 665.58787 469.47851 664.06445 471.10352 C 662.54104 472.7207 661.7793 474.93555 661.7793 477.74805 C 661.7793 480.55276 662.54104 482.76757 664.06445 484.39258 C 664.21563 484.55321 664.37662 484.69911 664.53906 484.84375 C 664.56552 484.87399 664.59079 484.90922 664.61914 484.93945 C 664.6267 484.94701 664.6371 484.95117 664.64844 484.95117 C 664.73461 485.04264 664.82997 485.12281 664.91992 485.20898 C 664.99816 485.30083 665.06957 485.39789 665.15234 485.48633 C 665.16746 485.50145 665.19028 485.50977 665.21484 485.50977 C 665.29459 485.59405 665.38245 485.6683 665.46484 485.74805 C 665.54573 485.84329 665.62124 485.94331 665.70703 486.03516 C 665.72971 486.05783 665.75914 486.06836 665.79883 486.06836 C 665.85779 486.13072 665.9239 486.18405 665.98438 486.24414 C 666.07773 486.35601 666.16585 486.47116 666.26562 486.57812 C 678.9123 498.76359 703.73633 523.9082 703.73633 523.9082 L 714.30664 533.18359 L 904.48242 533.18359 L 904.48242 528.48633 L 823.49219 452.92578 C 823.49219 452.92578 788.74041 415.64131 771.26172 395.52148 C 770.76203 394.91404 770.24969 394.31578 769.7207 393.73438 C 769.68669 393.6928 769.64843 393.6529 769.61328 393.61133 C 769.36875 393.31123 769.11665 393.01869 768.86523 392.72461 C 768.34793 392.09528 767.81569 391.47888 767.26758 390.87695 C 767.17309 390.7647 767.07414 390.65642 766.97852 390.54492 C 766.83414 390.37031 766.67992 390.20401 766.5332 390.03125 C 757.54711 379.0346 743.88146 372.01172 728.57422 372.01172 L 728.57031 372.01172 z "
       transform="matrix(0.26458333,0,0,0.26458333,0,86.99998)"
       id="path5521-2-78" />
    <path
       inkscape:connector-curvature="0"
       d="m 206.68948,211.08491 h 0.67283 l 1.15032,1.72083 1.15652,-1.72083 h 0.67283 l -1.48829,2.22312 1.5875,2.40606 h -0.67282 l -1.30225,-1.96888 -1.31155,1.96888 h -0.67592 l 1.65261,-2.47117 z m -1.64951,0 h 0.62632 v 4.62918 h -0.62632 z m -3.53466,0 h 0.62631 v 4.10208 h 2.25413 v 0.5271 h -2.88044 z m -3.6587,0 h 2.66031 v 0.5271 h -2.03399 v 1.36426 h 1.83555 v 0.5271 h -1.83555 v 2.21072 h -0.62632 z m -1.25573,0.15193 v 0.61081 q -0.35657,-0.17053 -0.67283,-0.25424 -0.31626,-0.0837 -0.61082,-0.0837 -0.51159,0 -0.79064,0.19844 -0.27596,0.19843 -0.27596,0.5643 0,0.30696 0.18294,0.46509 0.18603,0.15503 0.70073,0.25115 l 0.37827,0.0775 q 0.70073,0.13332 1.0325,0.47129 0.33486,0.33486 0.33486,0.89917 0,0.67282 -0.45269,1.02009 -0.44958,0.34726 -1.32085,0.34726 -0.32866,0 -0.70073,-0.0744 -0.36897,-0.0744 -0.76584,-0.22014 v -0.64492 q 0.38137,0.21394 0.74724,0.32246 0.36587,0.10852 0.71933,0.10852 0.53641,0 0.82786,-0.21084 0.29146,-0.21084 0.29146,-0.60151 0,-0.34106 -0.21084,-0.5333 -0.20774,-0.19224 -0.68523,-0.28836 l -0.38137,-0.0744 q -0.70074,-0.13952 -1.0139,-0.43718 -0.31316,-0.29766 -0.31316,-0.82785 0,-0.61392 0.43099,-0.96739 0.43408,-0.35346 1.19372,-0.35346 0.32556,0 0.66353,0.0589 0.33796,0.0589 0.69143,0.17673 z m -5.90042,0.27285 q -0.68213,0 -1.0852,0.5085 -0.39998,0.50849 -0.39998,1.38596 0,0.87436 0.39998,1.38286 0.40307,0.5085 1.0852,0.5085 0.68213,0 1.07901,-0.5085 0.39997,-0.5085 0.39997,-1.38286 0,-0.87747 -0.39997,-1.38596 -0.39688,-0.5085 -1.07901,-0.5085 z m 0,-0.50849 q 0.97359,0 1.5565,0.65422 0.58291,0.65112 0.58291,1.74873 0,1.09451 -0.58291,1.74873 -0.58291,0.65112 -1.5565,0.65112 -0.97668,0 -1.56269,-0.65112 -0.58291,-0.65112 -0.58291,-1.74873 0,-1.09761 0.58291,-1.74873 0.58601,-0.65422 1.56269,-0.65422 z m -4.56716,0.70073 -0.84956,2.30373 h 1.70222 z m -0.35347,-0.61702 h 0.71004 l 1.76423,4.62918 h -0.65112 l -0.42168,-1.18753 h -2.0867 l -0.42168,1.18753 h -0.66042 z m -5.96863,0 h 0.62632 v 1.89756 h 2.27583 v -1.89756 h 0.62632 v 4.62918 h -0.62632 v -2.20452 h -2.27583 v 2.20452 h -0.62632 z m -0.97358,0.35657 v 0.66042 q -0.31626,-0.29455 -0.67593,-0.44028 -0.35656,-0.14573 -0.75964,-0.14573 -0.79375,0 -1.21543,0.48679 -0.42168,0.4837 -0.42168,1.40147 0,0.91467 0.42168,1.40146 0.42168,0.48369 1.21543,0.48369 0.40308,0 0.75964,-0.14572 0.35967,-0.14573 0.67593,-0.44029 v 0.65423 q -0.32866,0.22324 -0.69763,0.33486 -0.36587,0.11162 -0.77515,0.11162 -1.0511,0 -1.65571,-0.64182 -0.60461,-0.64492 -0.60461,-1.75803 0,-1.11621 0.60461,-1.75803 0.60461,-0.64492 1.65571,-0.64492 0.41548,0 0.78135,0.11162 0.36897,0.10852 0.69143,0.32866 z m 13.93991,-26.01337 c -7.15963,0 -12.9642,5.80457 -12.9642,12.96498 a 12.964982,12.964982 0 0 0 0.84728,4.59512 c 0.18992,-0.49723 0.40781,-0.98259 0.68241,-1.43841 0.1398,-0.23213 0.29359,-0.45714 0.3962,-0.70694 0.10288,-0.2506 0.15036,-0.53337 0.0717,-0.79215 -0.0448,-0.14719 -0.12925,-0.28014 -0.22052,-0.40359 -0.0915,-0.12397 -0.19177,-0.24109 -0.27513,-0.37061 -0.21208,-0.32894 -0.30942,-0.73385 -0.25429,-1.12108 0.0554,-0.38777 0.26431,-0.75443 0.57927,-0.98708 0.28067,-0.20734 0.63519,-0.30072 0.9855,-0.28753 a 1.7568012,1.7568012 0 0 1 0.34556,0.0475 c 0.45265,0.11 0.85202,0.39304 1.14825,0.75179 0.36718,0.44579 0.58296,1.00976 0.63572,1.58481 0.0533,0.57505 -0.0528,1.16065 -0.27487,1.69349 -0.39831,0.9549 -1.15062,1.72568 -1.56476,2.67372 -0.33817,0.77447 -0.43525,1.6381 -0.38908,2.4822 0.006,0.0786 0.0169,0.15669 0.0237,0.2353 a 12.964982,12.964982 0 0 0 3.61938,3.18044 17.628682,17.628682 0 0 1 -0.12873,-2.11027 c 0.002,-0.56133 0.0303,-1.12108 0.0844,-1.67503 -0.34107,-0.23476 -0.65075,-0.5091 -0.87049,-0.85808 -0.39092,-0.62174 -0.46478,-1.40861 -0.30388,-2.12531 0.16091,-0.7167 0.54076,-1.36957 0.99711,-1.94488 0.75284,-0.94831 1.73622,-1.71565 2.83515,-2.2237 -0.0317,-0.0435 -0.0633,-0.0881 -0.0897,-0.12556 -0.40465,-0.65498 -0.64363,-1.40966 -0.70167,-2.17754 -0.0591,-0.77658 0.0633,-1.55421 0.11475,-2.33106 0.0369,-0.54181 0.039,-1.08415 0.0707,-1.62623 0.0369,-0.62701 0.11342,-1.25482 0.28937,-1.85756 0.0638,-0.21842 0.14191,-0.43656 0.26589,-0.62781 a 1.4006929,1.4006929 0 0 1 0.59431,-0.51543 c 0.27354,-0.10815 0.51121,-0.13137 0.77552,-0.087 0.22105,0.0475 0.42549,0.15695 0.6046,0.29544 0.17937,0.13769 0.33421,0.30414 0.48061,0.47665 a 7.2975837,7.2975837 0 0 1 1.03773,1.61595 3.5711075,3.5711075 0 0 1 1.09206,0 7.2865047,7.2865047 0 0 1 1.03826,-1.61621 c 0.14613,-0.17251 0.3015,-0.33896 0.48061,-0.47692 0.17937,-0.13822 0.38354,-0.24796 0.60486,-0.29491 a 1.2680096,1.2680096 0 0 1 0.78001,0.087 1.4022756,1.4022756 0 0 1 0.5943,0.51702 c 0.12398,0.19071 0.20206,0.40781 0.2659,0.62648 0.17568,0.60275 0.25217,1.23055 0.2891,1.85704 0.0317,0.54234 0.0343,1.08626 0.0712,1.62755 0.0514,0.77711 0.17489,1.55368 0.11607,2.33 a 4.854944,4.854944 0 0 1 -0.70378,2.17807 c -0.0317,0.0501 -0.0702,0.0957 -0.10287,0.14508 0.24637,0.2775 0.59799,0.51332 0.89792,0.61409 a 1.9556944,1.9556944 0 0 0 1.04827,0.0427 1.6504963,1.6504963 0 0 0 0.5339,-0.22633 1.252974,1.252974 0 0 0 0.397,-0.41783 c 0.1187,-0.20839 0.16618,-0.44844 0.19256,-0.68716 0.0673,-0.60881 0,-1.22396 -0.0501,-1.83436 -0.0343,-0.3962 -0.062,-0.79926 0.0269,-1.18702 0.0601,-0.26247 0.17779,-0.51913 0.37458,-0.70246 a 1.1057824,1.1057824 0 0 1 0.46478,-0.25323 1.3120615,1.3120615 0 0 1 0.53021,-0.029 c 0.37985,0.0554 0.73543,0.27275 0.94751,0.59219 0.12055,0.18148 0.19388,0.39119 0.23793,0.60486 0.0438,0.21366 0.0599,0.43128 0.0717,0.64891 0.0412,0.76049 0.0396,1.52203 0.0185,2.28358 -0.0177,0.66473 -0.0554,1.34793 -0.32129,1.95727 -0.34186,0.78212 -1.03034,1.36588 -1.77394,1.78529 a 7.051737,7.051737 0 0 1 -1.58693,0.64891 c 0.48193,1.53839 0.73279,3.24059 0.73279,4.96705 a 17.598875,17.598875 0 0 1 -0.13452,2.12557 12.964455,12.964455 0 0 0 6.38357,-11.15225 c -7.8e-4,-7.16068 -5.80535,-12.96498 -12.96497,-12.96498 z m -3.62598,15.98162 v 1.48299 a 1.8799885,1.8799885 0 0 1 1.08336,0.36244 1.7378088,1.7378088 0 0 1 0.55606,0.68056 c 0.12134,0.27038 0.16618,0.57585 0.11606,0.86785 a 1.4930173,1.4930173 0 0 1 -0.33184,0.708 1.6468034,1.6468034 0 0 1 -0.63572,0.45793 1.7383364,1.7383364 0 0 1 -0.78792,0.12213 v 3.73122 l 7.76211,-4.20867 -7.76237,-4.20471 z"
       style="font-style:normal;font-variant:normal;font-weight:normal;font-stretch:normal;font-size:medium;line-height:6.61458302px;font-family:'Arabic Newspaper';-inkscape-font-specification:'Arabic Newspaper';text-align:start;letter-spacing:0px;word-spacing:0px;writing-mode:lr-tb;text-anchor:start;fill:#ffffff;fill-opacity:1;stroke:none;stroke-width:0.26458332px;stroke-linecap:butt;stroke-linejoin:miter;stroke-opacity:1"
       id="path5367-7-3" />
  </g>
</svg>
